<?xml version="1.0" encoding="utf-8"?>
<!-- Generator: Adobe Illustrator 21.0.0, SVG Export Plug-In . SVG Version: 6.00 Build 0)  -->
<svg version="1.1" id="Layer_1" xmlns="http://www.w3.org/2000/svg" xmlns:xlink="http://www.w3.org/1999/xlink" x="0px" y="0px"
	 viewBox="0 0 1132 556" style="enable-background:new 0 0 1132 556;" xml:space="preserve">
<style type="text/css">
	.st0{fill-rule:evenodd;clip-rule:evenodd;fill:#f0f0f0;}
	.st1{fill:#f0f0f0;}
</style>
<g>
	<path class="st1" d="M246.1,160.9c-1-2.1-1.9-4.1-2.9-6.2c-8.4,4-16.8,8.2-25.1,12.5c1,1.9,1.9,3.8,2.9,5.7
		c2.4-0.3,4.7-0.6,7.1-0.9c3.6,7.3,7.3,14.7,10.9,22c3.4,6.8,7.5,10.9,12.4,12.4c4.9,1.5,11.1,0.5,18.7-2.9
		c8-3.6,12.9-7.8,14.9-12.7c1.9-4.9,1.5-11-1.5-18.1c-3-7.2-6-14.4-9-21.6c1.8-1.6,3.5-3.1,5.3-4.7c-0.9-2.1-1.7-4.2-2.6-6.3
		c-8.6,3.6-17.1,7.3-25.5,11.2c0.9,2,1.8,3.9,2.6,5.9c2.5-0.2,4.9-0.5,7.4-0.7c3.1,7.2,6.3,14.3,9.4,21.5c1.9,4.5,2.7,7.9,2.1,10.4
		c-0.5,2.5-2.7,4.6-6.7,6.4c-3.7,1.7-6.7,2-9,1c-2.3-1-4.4-3.5-6.4-7.6c-3.5-7.4-7-14.8-10.5-22.2
		C242.5,164.2,244.3,162.5,246.1,160.9L246.1,160.9z"/>
	<path class="st1" d="M326.6,170.7c-1.4-4-2.8-8-4.2-12.1c0.9-0.3,1.9-0.7,2.8-1c2.1-0.7,3.7-0.8,4.8-0.3c1.1,0.5,2.9,2,5.3,4.4
		c3.8,3.8,7.5,7.6,11.2,11.4c4.9-1.6,9.8-3.1,14.7-4.5c-0.6-2.2-1.3-4.3-1.9-6.5c-2,0-4,0-6-0.1c-2.8-2.8-5.7-5.6-8.6-8.5
		c-1.5-1.5-3.2-2.7-5-3.7c5.3-4.7,7-10.3,5-16.9c-1.5-5-4.6-8.2-9.2-9.5c-4.6-1.3-10.6-0.8-17.7,1.6c-2.2,0.7-4.3,1.5-6.5,2.2
		c-6.5,2.4-12.9,4.9-19.3,7.4c0.8,2,1.5,4,2.3,6c2.4-0.1,4.7-0.1,7.1-0.2c4.3,11.5,8.6,23,12.9,34.5c-1.8,1.3-3.5,2.7-5.3,4
		c0.8,2.1,1.6,4.2,2.4,6.3c7.9-3,15.8-5.8,23.8-8.5c-0.7-2.1-1.5-4.3-2.2-6.4C330.8,170.6,328.7,170.6,326.6,170.7L326.6,170.7z
		 M321.2,133.6c2.6-0.9,4.9-0.9,6.8,0c2,0.9,3.3,2.4,4,4.6c0.8,2.5,0.5,4.7-0.9,6.6c-1.4,1.9-3.7,3.5-6.9,4.6
		c-1.6,0.5-3.1,1.1-4.7,1.6c-1.8-5-3.5-10-5.3-15C316.6,135.1,318.9,134.4,321.2,133.6z"/>
	<path class="st1" d="M358.5,113c0.6,2.1,1.2,4.1,1.7,6.2c2.3,0.2,4.7,0.3,7,0.5c3.2,11.8,6.4,23.7,9.7,35.5
		c-2.5,1.5-4.3,2.7-5.6,3.5c0.6,2.2,1.2,4.3,1.8,6.5c8.4-2.3,16.9-4.5,25.3-6.6c14-3.3,19.9-9.9,17.7-20.4c-1.3-6-6.1-9.3-14.6-9.5
		c6.3-3.4,8.8-8.3,7.4-14.7c-0.9-4.3-3.3-7.3-7.3-8.7c-3.9-1.4-8.9-1.5-14.7-0.1c-3,0.7-6.1,1.5-9.1,2.2
		C371.5,109.2,365,111,358.5,113L358.5,113z M399.2,135.7c2.1,0.9,3.4,2.7,4.1,5.4c0.5,2.1,0.1,3.9-1.1,5.5
		c-1.2,1.6-3.3,2.7-6.1,3.3c-2.3,0.5-4.5,1.1-6.8,1.7c-1.2-4.9-2.5-9.8-3.7-14.7c1.6-0.4,3.2-0.8,4.8-1.2
		C394.1,134.8,397.1,134.8,399.2,135.7L399.2,135.7z M387.6,114.5c2.2-0.5,4.1-0.4,5.6,0.2c1.6,0.7,2.6,2,3,3.9
		c1.1,4.7-1.5,7.7-7.8,9.3c-1.6,0.4-3.3,0.8-4.9,1.2c-1.1-4.3-2.2-8.5-3.2-12.8C382.7,115.7,385.1,115.1,387.6,114.5z"/>
	<path class="st1" d="M447.6,93.6c-4.1,16.1-7.8,32.2-11,48.4c-1.9,0.9-3.8,1.9-5.7,2.9c0.4,2.2,0.8,4.4,1.3,6.6
		c8.2-1.6,16.4-3,24.6-4.2c-0.3-2.2-0.7-4.4-1-6.7c-2.2-0.3-4.5-0.6-6.7-0.8c0.4-2,0.8-4,1.1-6c6.2-1,12.3-1.9,18.5-2.7
		c0.9,1.8,1.9,3.7,2.8,5.5c-2,0.9-4,1.7-6,2.6c0.3,2.2,0.6,4.4,1,6.7c8.7-1.2,17.4-2.3,26.1-3.2c-0.2-2.2-0.5-4.5-0.7-6.7
		c-2-0.4-4-0.8-6-1.1c-7.7-14.6-15.7-29.1-24.2-43.5C457,92,452.3,92.8,447.6,93.6L447.6,93.6z M464.8,123.2
		c-4.3,0.6-8.7,1.2-13,1.9c1.3-6.4,2.6-12.8,4-19.2C458.8,111.6,461.8,117.4,464.8,123.2z"/>
	<path class="st1" d="M521.5,131.5c-0.6-8.8-1.1-17.6-1.7-26.4c8.5,11.2,16.6,22.5,24.3,34c4.6-0.1,9.2-0.2,13.8-0.3
		c-0.2-15.2-0.4-30.3-0.6-45.5c2.2-0.8,4.4-1.6,6.6-2.4c0-2.3,0-4.5,0-6.8c-8.4,0.2-16.9,0.5-25.3,0.9c0.1,2.1,0.2,4.3,0.2,6.4
		c2.2,0.7,4.3,1.4,6.5,2.1c0.3,8.9,0.5,17.8,0.8,26.6c-8-11.7-16.3-23.3-25-34.7c-7.1,0.5-14.2,1.2-21.2,1.9
		c0.2,2.1,0.4,4.3,0.6,6.4c2.3,0.6,4.5,1.2,6.8,1.8c1,12.2,1.9,24.5,2.9,36.7c-2,0.8-4.1,1.6-6.1,2.4c0.2,2.2,0.4,4.5,0.6,6.7
		c8-0.7,15.9-1.2,23.9-1.7c-0.1-2.2-0.2-4.5-0.4-6.7C525.9,132.5,523.7,132,521.5,131.5z"/>
	<path class="st1" d="M608.2,123.1c-0.3,5-0.6,9.9-0.8,14.9c0.8,0.3,1.6,0.6,2.4,0.8c1.7,0.6,4,1.3,7.1,2c3,0.7,5.9,1.2,8.7,1.4
		c6.5,0.5,12-0.5,16.5-3.3c4.5-2.7,7.1-6.9,7.7-12.5c0.3-2.8-0.1-5.4-1.3-7.6c-1.2-2.3-2.8-4-4.8-5.3c-2-1.3-4.2-2.5-6.7-3.7
		c-2.4-1.2-4.7-2.1-6.8-2.9c-2.1-0.8-3.8-1.7-5.2-2.9c-1.4-1.1-2-2.4-1.9-3.8c0.1-1.6,1-2.9,2.7-3.8c1.7-0.9,4-1.2,7-1
		c2.5,0.2,5,0.8,7.6,1.9c0.5,2.3,1,4.5,1.5,6.8c2.7,0.3,5.3,0.5,8,0.8c0.7-4.7,1.3-9.3,2-14c-0.9-0.4-1.7-0.7-2.6-1.1
		c-1.7-0.7-4.2-1.5-7.4-2.3c-3.2-0.8-6.3-1.4-9.2-1.6c-6.7-0.6-12.2,0.5-16.6,3.1c-4.3,2.6-6.6,6.5-6.9,11.7c-0.2,3,0.4,5.6,1.7,7.9
		c1.3,2.3,3,4,5.1,5.3c2.1,1.2,4.3,2.4,6.7,3.6c2.4,1.1,4.7,2.1,6.7,2.8c2.1,0.7,3.8,1.7,5.1,2.9s1.9,2.4,1.8,3.8
		c-0.2,2-1.3,3.4-3.4,4.3c-2,0.9-4.5,1.3-7.3,1c-3.2-0.3-5.9-1-8.1-2.2c-0.3-2.2-0.5-4.4-0.8-6.6C614,123.4,611.1,123.2,608.2,123.1
		z"/>
	<path class="st1" d="M683.9,139.4c0.6-3.4,1.1-6.8,1.7-10.2c1.5,0.2,3,0.5,4.4,0.7c7.7,1.3,13.9,0.8,18.6-1.6
		c4.7-2.4,7.8-6.7,9.1-13c1-5,0-9.2-3.2-12.8c-3.2-3.6-8.1-6-14.8-7.1c-2.8-0.5-5.6-0.9-8.4-1.4c-6.8-1-13.5-1.8-20.3-2.6
		c-0.3,2.1-0.6,4.2-0.9,6.4c2.1,1.1,4.2,2.1,6.2,3.2c-1.8,12.1-3.5,24.3-5.3,36.4c-2.2,0.3-4.3,0.7-6.5,1.1
		c-0.3,2.2-0.6,4.5-0.9,6.7c8.3,1.1,16.7,2.4,24.9,3.8c0.4-2.2,0.8-4.4,1.1-6.6C687.9,141.4,685.9,140.4,683.9,139.4z M696.8,104.2
		c2.9,0.5,5,1.7,6.2,3.5c1.2,1.8,1.6,4,1.2,6.6c-0.5,2.8-1.9,4.8-4,5.9c-2.2,1.1-5,1.4-8.6,0.8c-1.5-0.3-3-0.5-4.5-0.7
		c0.9-5.7,1.9-11.5,2.8-17.2C692.2,103.5,694.5,103.8,696.8,104.2z"/>
	<path class="st1" d="M757.9,108.1c-10.1,13.2-19.9,26.6-29.3,40.2c-2.1,0.1-4.2,0.3-6.4,0.4c-0.5,2.2-1,4.4-1.4,6.6
		c8.2,1.8,16.3,3.7,24.4,5.7c0.6-2.2,1.1-4.4,1.7-6.5c-2-1.1-3.9-2.3-5.9-3.4c1.1-1.7,2.3-3.4,3.4-5.1c6.1,1.5,12.2,3.1,18.2,4.8
		c0.1,2,0.3,4.1,0.4,6.1c-2.2,0-4.4,0-6.6,0.1c-0.6,2.2-1.2,4.3-1.8,6.5c8.5,2.3,17,4.7,25.5,7.3c0.7-2.1,1.3-4.3,2-6.4
		c-1.7-1.1-3.4-2.3-5.1-3.4c-1.3-16.4-3.1-32.9-5.2-49.4C767.2,110.3,762.6,109.2,757.9,108.1z M762.1,142
		c-4.3-1.2-8.5-2.3-12.8-3.3c3.7-5.4,7.4-10.7,11.2-16.1C761.2,129.1,761.7,135.5,762.1,142z"/>
	<path class="st1" d="M840.3,152.2c2.7,1,5.4,2.1,8.1,3.2c2-4.5,3.9-9,5.9-13.5c-0.8-0.6-1.6-1.3-2.3-1.9c-1.5-1.3-3.8-2.8-6.8-4.6
		c-3-1.8-6.1-3.3-9.1-4.4c-8.8-3.2-16.6-3.2-23.4,0c-6.8,3.2-11.5,9.1-14.3,17.7c-2.8,8.5-2.6,15.7,0.3,21.6
		c3,5.9,8.4,10.2,16.4,13.2c2.3,0.8,4.7,1.4,7.2,1.7c2.5,0.3,4.6,0.4,6.4,0.3c1.8-0.1,3.5-0.3,5.3-0.7c1.7-0.4,2.9-0.6,3.5-0.8
		c0.6-0.2,1-0.3,1.3-0.5c-0.6-2.7-1.2-5.5-1.8-8.2c-0.8,0.1-1.7,0.3-2.5,0.4c-1.7,0.3-4,0.4-6.8,0.3c-2.8-0.1-5.4-0.6-7.8-1.4
		c-9-3.3-11.6-10.4-7.7-21.7c4.1-12,10.9-16.4,20.1-13c3.6,1.3,6.6,2.9,8.9,4.7C840.9,147.1,840.6,149.7,840.3,152.2z"/>
	<path class="st1" d="M900.2,169c-0.2,2.1-0.3,4.1-0.5,6.2c2.5,1.2,5,2.4,7.5,3.7c2.2-4.5,4.5-8.9,6.7-13.4c-7.6-3.8-15.3-7.4-23-11
		c-6.4-2.8-12.8-5.5-19.2-8.1c-0.8,2-1.7,3.9-2.5,5.9c1.8,1.6,3.5,3.2,5.3,4.8c-4.9,11.2-9.9,22.5-14.8,33.7
		c-2.2-0.3-4.4-0.5-6.6-0.7c-0.9,2.1-1.8,4.1-2.7,6.2c13.5,5.7,26.8,11.9,40,18.5c2.3-4.6,4.7-9.2,7-13.8c-2.4-1.2-4.8-2.4-7.1-3.5
		c-1.5,1.6-3.1,3.3-4.6,4.9c-4.6-2.2-9.1-4.3-13.7-6.4c2.1-4.5,4.2-9.1,6.3-13.6c5.3,2.4,10.7,4.9,16,7.5c1.3-2.6,2.5-5.1,3.8-7.7
		c-5.4-2.6-10.7-5.1-16.1-7.6c1.8-3.9,3.6-7.8,5.4-11.8C891.4,164.9,895.8,166.9,900.2,169L900.2,169z"/>
	<path class="st1" d="M273.5,238.5c0.3,0.6,0.6,1.2,0.9,1.8c1-0.5,2-1,3-1.5c2.6,5.1,5.1,10.3,7.7,15.4c-1,0.5-2,0.9-3,1.4
		c0.3,0.6,0.6,1.2,0.9,1.8c3.7-1.8,7.5-3.6,11.2-5.3c-0.3-0.6-0.6-1.2-0.9-1.8c-1.4,0.6-2.7,1.3-4.1,1.9c-2.5-5.2-5.1-10.3-7.6-15.5
		c2.1-1,4.3-2,6.4-3c0.4,0.1,0.8,0.2,1.2,0.4c0.6,1.3,1.2,2.6,1.8,3.8c0.9-0.4,1.8-0.8,2.6-1.2c-1-2.1-2-4.3-3-6.4
		C285,233,279.3,235.7,273.5,238.5L273.5,238.5z"/>
	<path class="st1" d="M319,248.1c-1,0.4-2,0.8-3,1.2c-0.9-2-1.7-3.9-2.6-5.9c0.4,0,0.8-0.1,1.2-0.1c0.4,0,0.8-0.1,1.1-0.2
		c0.4-0.1,0.8-0.2,1.2-0.4c0.4-0.1,0.9-0.3,1.5-0.6c1.6-0.7,3-1.5,4.1-2.5c1.1-1,2-2.2,2.5-3.5c0.6-1.3,0.8-2.7,0.8-4.2
		c0-1.5-0.4-3.1-1.1-4.8c-1.4-3.5-3.2-5.7-5.4-6.6c-2.2-0.9-4.6-0.8-7.4,0.3c-1.9,0.8-3.2,1.8-4,3c-0.8,1.2-1.2,2.6-1.2,4.2
		c0,0,0,0,0,0c-0.6-1.3-1.1-2.6-1.7-3.9c-2.5,1.1-5,2.1-7.5,3.2c0.3,0.6,0.6,1.2,0.8,1.8c1-0.4,2.1-0.9,3.1-1.3
		c3.5,7.7,6.9,15.4,10.4,23.1c-1,0.4-2,0.9-3,1.3c0.3,0.6,0.6,1.2,0.8,1.8c3.4-1.5,6.7-2.9,10.1-4.3
		C319.6,249.3,319.3,248.7,319,248.1L319,248.1z M314.3,223.6c0.9,0.1,1.7,0.3,2.4,0.8c0.7,0.5,1.3,1.1,1.9,1.9
		c0.6,0.8,1.1,1.7,1.5,2.8c0.6,1.3,0.9,2.6,1.1,3.8c0.2,1.2,0.1,2.3-0.1,3.3c-0.2,1-0.6,1.9-1.2,2.6c-0.6,0.8-1.4,1.3-2.4,1.8
		c-1.1,0.5-2,0.8-2.7,0.9c-0.7,0.2-1.4,0.2-2.1,0.1c-1.6-3.6-3.2-7.2-4.8-10.9c-0.2-1.5-0.1-2.9,0.5-4c0.5-1.1,1.6-2,3.1-2.6
		C312.5,223.7,313.5,223.5,314.3,223.6L314.3,223.6z"/>
	<path class="st1" d="M335.2,228.6c0.9,1.1,2,1.9,3.3,2.5c1.3,0.6,2.7,0.8,4.2,0.8c1.6,0,3.3-0.3,5.1-1c1.7-0.6,3.1-1.4,4.3-2.3
		c1.2-0.9,2.1-2,2.8-3.2c0.6-1.2,1-2.5,1.1-4c0.1-1.5-0.2-3-0.8-4.7c-0.6-1.6-1.3-2.9-2.2-4.1c-0.9-1.1-2-2-3.2-2.6
		c-1.2-0.6-2.7-0.9-4.3-0.9c-1.6,0-3.4,0.4-5.4,1.1c-1.7,0.6-3.2,1.4-4.4,2.4c-1.2,1-2.2,2.1-2.8,3.3c-0.6,1.2-1,2.6-1,4.1
		c0,1.5,0.3,3.1,0.9,4.7C333.5,226.2,334.3,227.5,335.2,228.6L335.2,228.6z M336.7,215.8c0.6-1.8,1.8-3,3.7-3.7
		c1.3-0.4,2.4-0.6,3.4-0.5c1,0.1,2,0.5,2.8,1.1c0.8,0.6,1.6,1.4,2.2,2.3c0.6,1,1.2,2.1,1.6,3.3c1.1,3,1.3,5.3,0.8,7.1
		c-0.6,1.7-1.7,2.9-3.3,3.5c-1.3,0.5-2.5,0.6-3.6,0.5c-1.1-0.1-2-0.4-2.9-1c-0.9-0.6-1.6-1.3-2.3-2.2c-0.6-0.9-1.2-2-1.7-3.2
		C336.4,219.9,336.2,217.6,336.7,215.8L336.7,215.8z"/>
	<path class="st1" d="M374.2,219.6c-0.9,0.3-1.8,0.6-2.8,0.9c-1.8-5.4-3.6-10.9-5.4-16.3c0.1,0,0.3-0.1,0.4-0.1
		c4.4,4.3,8.8,8.7,13.1,13.1c0.4-0.1,0.9-0.3,1.3-0.4c1.1-6,2.2-12,3.4-18.1c0.1,0,0.3-0.1,0.4-0.1c1.6,5.5,3.3,11,4.9,16.5
		c-0.9,0.3-1.9,0.5-2.8,0.8c0.2,0.6,0.4,1.3,0.6,1.9c3.4-1,6.7-1.9,10.1-2.8c-0.2-0.6-0.4-1.3-0.6-1.9c-1,0.3-2.1,0.6-3.1,0.9
		c-1.6-5.5-3.2-11-4.8-16.5c1.1-0.3,2.1-0.6,3.2-0.9c-0.2-0.6-0.4-1.3-0.6-1.9c-3.2,0.8-6.3,1.7-9.4,2.6c-0.9,4.8-1.8,9.6-2.6,14.3
		c0,0-0.1,0-0.1,0c-3.3-3.5-6.7-7.1-10.1-10.6c-3.2,1-6.4,2-9.6,3c0.2,0.6,0.4,1.3,0.6,1.9c1-0.3,2-0.7,3.1-1
		c1.8,5.4,3.6,10.9,5.4,16.3c-1,0.3-2.1,0.7-3.1,1c0.2,0.6,0.4,1.3,0.6,1.9c2.8-0.9,5.6-1.8,8.3-2.6
		C374.6,220.9,374.4,220.3,374.2,219.6z"/>
	<path class="st1" d="M421.3,198.7c-0.3-1.5-0.6-3.1-1-4.8c-0.2-0.8-0.4-1.5-0.8-2.2c-0.3-0.7-0.9-1.4-1.6-1.8
		c-0.7-0.5-1.6-0.8-2.7-1c-1.1-0.1-2.5,0-4.2,0.4c-1.9,0.5-3.6,1.1-4.9,1.8c-1.3,0.7-2.5,1.5-3.4,2.3c0.4,1.4,0.8,2.9,1.1,4.3
		c1.3-0.3,2.6-0.6,3.9-1c-0.3-1.2-0.6-2.4-0.9-3.5c0.5-0.4,1.1-0.7,1.7-0.9c0.7-0.2,1.3-0.4,1.9-0.5c1.6-0.4,2.8-0.2,3.6,0.5
		c0.8,0.7,1.4,1.9,1.8,3.5c0.1,0.4,0.2,0.7,0.3,1.1c0.1,0.4,0.2,0.8,0.2,1.2c-2.3,0.6-4.3,1.2-6,1.8c-1.7,0.6-3,1.3-4,2.1
		c-1,0.8-1.7,1.6-2.1,2.6c-0.4,1-0.4,2.1,0,3.4c0.2,0.8,0.6,1.5,1.1,2.1c0.5,0.6,1.1,1,1.8,1.4c0.7,0.3,1.5,0.5,2.4,0.6
		c0.9,0.1,1.8,0,2.7-0.3c1-0.2,1.8-0.6,2.5-1c0.7-0.4,1.3-0.9,1.8-1.4c0.5-0.5,0.9-1.1,1.1-1.7c0.3-0.6,0.4-1.2,0.4-1.7
		c0.1,0,0.1,0,0.2,0c0.4,1.2,0.9,2.4,1.3,3.6c2.3-0.5,4.5-1,6.8-1.5c-0.2-0.7-0.3-1.3-0.5-2c-1,0.2-1.9,0.4-2.9,0.6
		c-0.2-0.5-0.4-1-0.5-1.6c-0.2-0.6-0.3-1.2-0.5-1.8C421.9,201.7,421.5,200.2,421.3,198.7L421.3,198.7z M410.5,208.3
		c-0.8-0.4-1.4-1.3-1.7-2.4c-0.2-0.6-0.2-1.1-0.1-1.7c0.1-0.6,0.4-1.1,1-1.6c0.6-0.5,1.4-1,2.5-1.5c1.1-0.5,2.6-1,4.5-1.4
		c0.4,1.6,0.8,3.1,1.1,4.7c-0.1,0.4-0.3,0.8-0.5,1.2c-0.2,0.4-0.5,0.9-0.8,1.3c-0.3,0.4-0.8,0.8-1.2,1.1c-0.5,0.3-1.1,0.6-1.8,0.7
		C412.4,208.8,411.4,208.8,410.5,208.3L410.5,208.3z"/>
	<path class="st1" d="M453.9,202.4c0.3,0.2,0.7,0.4,1,0.6c0.3,1.7,0.6,3.4,1,5.2c1-0.2,2-0.4,3.1-0.5c-0.5-2.7-1-5.3-1.4-8
		c-1.3,0.2-2.6,0.4-3.9,0.7c-1-5.6-2.1-11.3-3.1-16.9c1.1-0.2,2.2-0.4,3.3-0.6c-0.1-0.7-0.2-1.3-0.4-2c-7.1,1.2-14.2,2.5-21.2,4
		c0.1,0.7,0.3,1.3,0.4,2c1.1-0.2,2.3-0.5,3.4-0.7c0.6,2.7,0.9,5.1,1,7.1s0.1,3.7-0.1,5.1c-0.2,1.4-0.4,2.5-0.7,3.4
		c-0.3,0.9-0.6,1.5-0.9,2c-1,0.2-1.9,0.4-2.9,0.6c0.6,2.6,1.2,5.3,1.7,7.9c1-0.2,2-0.4,3-0.6c-0.4-1.7-0.7-3.4-1.1-5.1
		c0.2-0.3,0.5-0.6,0.7-1C442.5,204.5,448.2,203.4,453.9,202.4L453.9,202.4z M445.9,184.5c1.1,5.6,2.2,11.2,3.2,16.7
		c-3.6,0.7-7.2,1.4-10.8,2.1c0.2-0.6,0.5-1.4,0.7-2.3c0.3-1,0.5-2.1,0.6-3.6c0.1-1.4,0.1-3.1,0.1-5c-0.1-1.9-0.4-4.1-0.9-6.6
		C441.2,185.4,443.6,184.9,445.9,184.5z"/>
	<path class="st1" d="M483,193.6c-0.3,0.3-0.5,0.5-0.8,0.7c-0.3,0.2-0.6,0.4-1,0.6c-0.4,0.2-0.8,0.4-1.4,0.6
		c-0.5,0.2-1.1,0.4-1.8,0.5c-1.3,0.2-2.5,0.1-3.5-0.2c-1-0.3-1.9-0.7-2.7-1.4c-0.8-0.6-1.4-1.4-1.8-2.3c-0.5-0.9-0.8-1.9-1-3
		c-0.3-1.6-0.3-3-0.2-4.2c0.1-1.2,0.4-2.1,0.9-2.9c0.5-0.7,1.1-1.3,2-1.7c0.8-0.4,1.8-0.7,2.9-0.9c1.3-0.2,2.2-0.2,2.7,0
		c0.2,1.3,0.4,2.5,0.5,3.8c1.3-0.2,2.6-0.4,4-0.5c-0.2-1.7-0.5-3.5-0.7-5.2c-0.9-0.3-2-0.5-3.1-0.5c-1.1,0-2.5,0-4.1,0.3
		c-3.6,0.5-6.3,1.9-8.1,4c-1.8,2.2-2.4,5-1.8,8.6c0.3,1.6,0.8,3.1,1.4,4.4c0.7,1.3,1.6,2.3,2.7,3.1c1.1,0.8,2.4,1.4,3.9,1.7
		c1.5,0.3,3.2,0.3,5.1,0.1c1.8-0.3,3.3-0.8,4.5-1.6c1.2-0.8,2.1-1.7,2.6-2.5C483.9,194.6,483.5,194.1,483,193.6z"/>
	<path class="st1" d="M498.2,176.9c1-0.1,2-0.2,2.9-0.3c-0.1-0.7-0.1-1.3-0.2-2c-3.6,0.4-7.3,0.8-10.9,1.2c0.1,0.7,0.2,1.3,0.2,2
		c1.1-0.1,2.2-0.3,3.3-0.4c0.7,5.7,1.3,11.4,2,17.1c-1.1,0.1-2.1,0.2-3.2,0.4c0.1,0.7,0.2,1.3,0.2,2c1.5-0.2,3-0.3,4.5-0.5
		c1.2-0.1,2.4-0.2,3.6-0.3c1.2-0.1,2.2-0.1,3-0.2c1.5-0.1,2.8-0.4,4-0.8c1.2-0.4,2.2-0.9,3-1.6c0.8-0.7,1.4-1.4,1.9-2.3
		c0.4-0.9,0.6-1.9,0.5-3c-0.2-2.1-1.1-3.6-2.7-4.5c-1.6-0.9-3.8-1.2-6.5-0.9c-1.3,0.1-2.3,0.3-3,0.4c-0.7,0.2-1.3,0.3-1.8,0.4
		C498.7,181.2,498.5,179,498.2,176.9L498.2,176.9z M499.1,185.2c0.5-0.1,1-0.2,1.5-0.3c0.5-0.1,1-0.1,1.5-0.2c0.7-0.1,1.4-0.1,2.1,0
		c0.7,0.1,1.3,0.3,1.8,0.5c0.5,0.3,1,0.7,1.3,1.2c0.3,0.5,0.6,1.2,0.6,2c0.2,1.7-0.2,3.1-1.2,4c-1,0.9-2.4,1.4-4.2,1.6
		c-0.4,0-0.8,0.1-1.3,0.1c-0.4,0-0.9,0-1.3,0C499.8,191.1,499.5,188.1,499.1,185.2z"/>
	<path class="st1" d="M534.6,174c0.9,0,1.9-0.1,2.8-0.1c-2.2,2.6-4.4,5.2-6.5,7.9c-0.8,0-1.5,0.1-2.3,0.1c-0.2-2.5-0.3-5-0.5-7.5
		c0.8-0.1,1.7-0.1,2.5-0.1c0-0.7-0.1-1.3-0.1-2c-3.5,0.2-7,0.4-10.5,0.7c0.1,0.7,0.1,1.3,0.2,2c1.1-0.1,2.2-0.2,3.3-0.2
		c0.4,5.7,0.8,11.4,1.2,17.1c-1.1,0.1-2.1,0.1-3.2,0.2c0.1,0.7,0.1,1.3,0.2,2c3.6-0.3,7.2-0.5,10.8-0.7c0-0.7-0.1-1.3-0.1-2
		c-1,0.1-2,0.1-3,0.2c-0.2-2.7-0.3-5.3-0.5-8c0.8,0,1.7-0.1,2.5-0.1c2.9,3.2,5.8,6.4,8.7,9.6c2.1-0.1,4.2-0.2,6.2-0.2
		c0-0.7,0-1.3-0.1-2c-0.7,0-1.4,0.1-2.2,0.1c-3.1-3.2-6.2-6.4-9.4-9.5c2.1-2.5,4.3-5,6.5-7.5c1,0,1.9-0.1,2.9-0.1
		c0-0.7-0.1-1.3-0.1-2c-3.1,0.1-6.2,0.2-9.3,0.4C534.5,172.7,534.6,173.4,534.6,174L534.6,174z"/>
	<path class="st1" d="M551.8,173.4c1.1,0,2.2-0.1,3.3-0.1c0.1,5.7,0.3,11.4,0.4,17.2c-1.1,0-2.1,0-3.2,0.1c0,0.7,0,1.3,0.1,2
		c2.8-0.1,5.6-0.1,8.4-0.2c2.8-5.1,5.7-10.3,8.7-15.3c0.6-1.3,1.2-2.6,1.9-4.1c0.1,0,0.2,0,0.3,0c-0.2,1.6-0.3,2.9-0.5,4.3
		c0,4.3,0,8.7,0,13c-1,0-1.9,0-2.9,0c0,0.7,0,1.4,0,2c3.5,0,6.9,0,10.4,0.1c0-0.7,0-1.3,0-2c-1.1,0-2.1,0-3.2,0
		c0.1-5.7,0.1-11.4,0.2-17.2c1.1,0,2.2,0,3.3,0c0-0.7,0-1.3,0-2c-2.9,0-5.8-0.1-8.7-0.1c-3,5.1-5.9,10.2-8.7,15.3
		c-0.5,1.2-1.1,2.4-1.6,3.6c-0.1,0-0.2,0-0.3,0c0.1-1.5,0.1-2.9,0.2-4.4c-0.1-4.1-0.1-8.3-0.2-12.4c1,0,2,0,2.9,0c0-0.7,0-1.3,0-2
		c-3.6,0-7.2,0.1-10.7,0.2C551.8,172.1,551.8,172.7,551.8,173.4z"/>
	<path class="st1" d="M587.2,173.4c1.1,0,2.2,0.1,3.3,0.1c-0.2,5.7-0.4,11.4-0.6,17.2c-1.1,0-2.1-0.1-3.2-0.1c0,0.7,0,1.3-0.1,2
		c2.8,0.1,5.6,0.2,8.4,0.3c3.1-4.9,6.3-9.8,9.5-14.7c0.7-1.3,1.4-2.6,2.1-3.9c0.1,0,0.2,0,0.3,0c-0.2,1.4-0.5,2.8-0.7,4.1
		c-0.2,4.3-0.5,8.6-0.7,12.9c-1-0.1-1.9-0.1-2.9-0.1c0,0.7-0.1,1.3-0.1,2c3.5,0.2,6.9,0.4,10.4,0.6c0-0.7,0.1-1.3,0.1-2
		c-1.1-0.1-2.1-0.1-3.2-0.2c0.4-5.7,0.7-11.4,1.1-17.1c1.1,0.1,2.2,0.1,3.3,0.2c0-0.7,0.1-1.3,0.1-2c-2.9-0.2-5.8-0.4-8.7-0.5
		c-3.2,4.9-6.4,9.8-9.5,14.8c-0.6,1.2-1.2,2.3-1.8,3.5c-0.1,0-0.2,0-0.3,0c0.1-1.4,0.3-2.9,0.4-4.3c0.2-4.1,0.3-8.3,0.5-12.4
		c1,0,2,0.1,2.9,0.1c0-0.7,0.1-1.3,0.1-2c-3.6-0.2-7.2-0.3-10.7-0.4C587.2,172.1,587.2,172.8,587.2,173.4z M604.5,169.3
		c1-0.1,1.8-0.3,2.6-0.6c0.8-0.3,1.4-0.6,1.9-0.9c0.5-0.4,0.8-0.8,0.9-1.2c0-0.8,0.1-1.6,0.1-2.3c-1.6-0.1-3.3-0.2-4.9-0.3
		c-0.1,1.1-0.1,2.2-0.2,3.3c-0.5,0.2-1,0.3-1.5,0.3c-0.5,0-1.2,0-2,0c-0.8,0-1.5-0.1-2-0.2c-0.5-0.1-1-0.3-1.4-0.6
		c0-1.1,0.1-2.1,0.1-3.2c-1.7-0.1-3.4-0.1-5.1-0.2c0,0.8-0.1,1.6-0.1,2.3c0.2,0.5,0.5,0.9,1,1.3c0.5,0.4,1.1,0.8,1.8,1.1
		c0.7,0.3,1.6,0.6,2.5,0.8c1,0.2,2,0.4,3,0.4C602.5,169.4,603.5,169.4,604.5,169.3L604.5,169.3z"/>
	<path class="st1" d="M646.8,203.1c-1.1-0.1-2.1-0.3-3.2-0.4c0.3-2.1,0.5-4.2,0.8-6.3c0.4,0.2,0.7,0.3,1.1,0.5
		c0.3,0.1,0.7,0.3,1.1,0.4c0.4,0.1,0.8,0.2,1.2,0.3c0.4,0.1,0.9,0.2,1.5,0.2c1.7,0.2,3.3,0.1,4.8-0.2c1.5-0.3,2.8-0.9,3.9-1.8
		c1.1-0.9,2.1-1.9,2.8-3.3c0.7-1.3,1.2-2.9,1.5-4.6c0.5-3.7,0.1-6.5-1.2-8.3c-1.4-1.8-3.5-3-6.5-3.3c-2-0.2-3.6,0-4.9,0.7
		c-1.3,0.7-2.4,1.7-3.2,3c0,0,0,0,0,0c0.2-1.4,0.3-2.8,0.5-4.2c-2.7-0.3-5.3-0.6-8-0.9c-0.1,0.7-0.1,1.3-0.2,2
		c1.1,0.1,2.2,0.2,3.3,0.3c-0.9,8.4-1.9,16.7-2.8,25.1c-1.1-0.1-2.1-0.2-3.2-0.3c-0.1,0.7-0.1,1.3-0.2,2c3.6,0.4,7.2,0.8,10.8,1.2
		C646.6,204.4,646.7,203.7,646.8,203.1z M655.2,179.5c0.7,0.5,1.3,1.1,1.6,1.8c0.4,0.7,0.6,1.6,0.7,2.6c0.1,1,0,2-0.1,3.2
		c-0.2,1.4-0.5,2.7-1,3.8c-0.5,1.1-1,2.1-1.7,2.8c-0.7,0.8-1.5,1.3-2.4,1.7c-0.9,0.4-1.9,0.5-2.9,0.3c-1.2-0.1-2.1-0.3-2.8-0.5
		c-0.7-0.2-1.3-0.5-1.8-0.9c0.5-3.9,0.9-7.8,1.4-11.8c0.6-1.5,1.4-2.5,2.4-3.2c1-0.7,2.3-1,3.9-0.8
		C653.5,178.7,654.4,179,655.2,179.5z"/>
	<path class="st1" d="M687.9,198.7c-0.7,0.3-1.5,0.6-2.5,0.8c-1,0.2-2.1,0.2-3.2,0c-1.4-0.2-2.6-0.6-3.5-1.2c-0.9-0.6-1.7-1.2-2.3-2
		c-0.6-0.8-0.9-1.7-1.1-2.7c-0.2-1-0.2-2.1,0-3.3c5.1,0.8,10.2,1.7,15.3,2.6c0.2-0.5,0.4-1,0.6-1.5c0.2-0.5,0.3-1,0.4-1.4
		c0.3-1.5,0.3-2.8-0.1-3.9c-0.4-1.1-0.9-2-1.7-2.8c-0.8-0.8-1.7-1.4-2.8-1.9c-1.1-0.5-2.2-0.8-3.4-1c-3.6-0.6-6.5-0.1-8.8,1.4
		c-2.3,1.5-3.7,4.1-4.3,7.7c-0.3,1.6-0.2,3.2,0,4.6c0.3,1.4,0.9,2.7,1.7,3.8c0.8,1.1,1.9,2,3.3,2.8c1.4,0.8,3,1.3,4.9,1.6
		c1.8,0.3,3.4,0.3,4.9,0c1.5-0.3,2.7-0.9,3.6-1.8C688.5,199.9,688.2,199.3,687.9,198.7z M686.3,184.4c0.6,1.2,0.7,2.6,0.4,4.4
		c0,0.2-0.1,0.4-0.2,0.7c-0.1,0.2-0.1,0.5-0.2,0.7c-3.5-0.6-7-1.2-10.6-1.8c0.3-1.3,0.7-2.4,1.1-3.3c0.4-0.9,1-1.5,1.6-2
		c0.6-0.5,1.3-0.8,2-0.9c0.7-0.1,1.6-0.1,2.5,0C684.6,182.5,685.7,183.2,686.3,184.4z"/>
	<path class="st1" d="M715.8,204.4c-0.3,0.1-0.7,0.3-1,0.4c-0.4,0.1-0.8,0.2-1.2,0.3c-0.4,0.1-0.9,0.1-1.5,0.1
		c-0.6,0-1.2-0.1-1.9-0.2c-1.3-0.3-2.4-0.7-3.2-1.4c-0.9-0.6-1.5-1.4-2-2.2c-0.5-0.9-0.8-1.8-0.9-2.8c-0.1-1-0.1-2.1,0.2-3.1
		c0.3-1.6,0.8-2.9,1.3-4c0.5-1,1.2-1.8,1.9-2.4c0.7-0.5,1.5-0.9,2.5-1c0.9-0.1,1.9,0,3,0.2c1.3,0.3,2.2,0.6,2.6,0.9
		c-0.3,1.2-0.6,2.5-0.9,3.7c1.3,0.3,2.6,0.6,3.9,0.9c0.4-1.7,0.8-3.4,1.2-5.1c-0.8-0.6-1.7-1.1-2.7-1.5c-1-0.4-2.3-0.8-3.9-1.2
		c-3.6-0.8-6.6-0.4-9,1c-2.5,1.4-4,3.9-4.8,7.4c-0.3,1.6-0.4,3.2-0.2,4.6c0.2,1.4,0.6,2.7,1.4,3.8c0.7,1.1,1.8,2.1,3.1,2.9
		c1.3,0.8,2.9,1.4,4.7,1.8c1.8,0.4,3.4,0.4,4.8,0c1.4-0.4,2.5-0.8,3.3-1.5C716.3,205.6,716,205,715.8,204.4z"/>
	<path class="st1" d="M738.8,212.4c-1-0.3-2.1-0.5-3.1-0.8c1.5-5.5,3-11.1,4.5-16.6c1.5,0.4,3,0.8,4.4,1.2c0.2,0.3,0.4,0.7,0.6,1
		c-0.4,1.4-0.8,2.7-1.1,4.1c0.9,0.2,1.8,0.5,2.8,0.7c0.6-2.3,1.3-4.5,1.9-6.8c-6.9-1.9-13.9-3.7-20.8-5.3c-0.6,2.3-1.1,4.6-1.7,6.9
		c0.9,0.2,1.8,0.4,2.8,0.7c0.3-1.4,0.7-2.7,1-4.1c0.4-0.2,0.7-0.4,1.1-0.6c1.5,0.4,3,0.7,4.4,1.1c-1.5,5.5-2.9,11.1-4.4,16.6
		c-1-0.3-2.1-0.5-3.1-0.8c-0.2,0.7-0.3,1.3-0.5,2c3.6,0.9,7.1,1.8,10.7,2.7C738.5,213.7,738.6,213.1,738.8,212.4L738.8,212.4z"/>
	<path class="st1" d="M753.2,212.2c0.1,1.4,0.4,2.7,1.1,3.9c0.6,1.2,1.6,2.2,2.8,3.2c1.2,0.9,2.8,1.7,4.7,2.2
		c1.7,0.5,3.3,0.8,4.8,0.7c1.5,0,2.9-0.3,4.2-0.9c1.3-0.6,2.4-1.4,3.3-2.5c1-1.1,1.7-2.5,2.3-4.2c0.5-1.6,0.8-3.1,0.8-4.5
		c0-1.4-0.3-2.8-0.9-4c-0.6-1.2-1.6-2.3-2.8-3.2c-1.3-1-2.9-1.7-4.9-2.4c-1.7-0.5-3.4-0.8-4.9-0.7c-1.6,0-3,0.4-4.2,1
		c-1.3,0.6-2.4,1.5-3.3,2.6c-0.9,1.2-1.7,2.6-2.2,4.3C753.3,209.3,753.1,210.8,753.2,212.2z M762.3,202.9c1.6-1.1,3.3-1.3,5.2-0.7
		c1.3,0.4,2.3,0.9,3,1.6c0.7,0.7,1.3,1.5,1.6,2.5c0.3,1,0.4,2,0.3,3.2c-0.1,1.1-0.3,2.3-0.8,3.6c-1,3-2.3,5-3.8,6.1
		c-1.5,1.1-3.1,1.3-4.8,0.8c-1.3-0.4-2.4-1-3.1-1.7c-0.8-0.7-1.3-1.6-1.7-2.5c-0.3-0.9-0.5-2-0.4-3.1c0.1-1.1,0.3-2.3,0.7-3.6
		C759.5,206,760.8,204,762.3,202.9z"/>
	<path class="st1" d="M788.8,236.4c-1-0.4-2-0.7-3-1.1c0.7-2,1.5-4,2.2-6c0.3,0.3,0.6,0.5,0.9,0.7c0.3,0.2,0.6,0.4,1,0.6
		c0.3,0.2,0.7,0.4,1.1,0.5c0.4,0.2,0.9,0.4,1.4,0.6c1.6,0.6,3.2,0.9,4.8,0.9c1.5,0,2.9-0.3,4.3-0.9c1.3-0.6,2.5-1.4,3.5-2.6
		c1-1.1,1.9-2.5,2.5-4.2c1.4-3.5,1.6-6.3,0.7-8.4c-0.9-2.1-2.8-3.7-5.6-4.7c-1.9-0.7-3.5-0.8-5-0.5c-1.4,0.4-2.7,1.1-3.8,2.2
		c0,0,0,0,0,0c0.5-1.3,1-2.7,1.5-4c-2.5-0.9-5.1-1.8-7.7-2.6c-0.2,0.6-0.5,1.3-0.7,1.9c1.1,0.4,2.1,0.7,3.2,1.1
		c-2.9,7.9-5.7,15.9-8.6,23.8c-1-0.3-2-0.7-3-1c-0.2,0.6-0.4,1.3-0.7,1.9c3.5,1.2,6.9,2.4,10.3,3.6
		C788.3,237.7,788.5,237,788.8,236.4z M802.5,215.4c0.6,0.6,1,1.4,1.2,2.2c0.2,0.8,0.2,1.7,0.1,2.7c-0.2,1-0.4,2-0.9,3.1
		c-0.5,1.3-1.1,2.5-1.9,3.5c-0.7,1-1.5,1.8-2.4,2.4c-0.9,0.6-1.8,1-2.7,1.1c-1,0.1-2,0-3-0.3c-1.1-0.4-2-0.8-2.6-1.1
		c-0.6-0.4-1.2-0.8-1.6-1.3c1.4-3.7,2.7-7.4,4.1-11.1c0.9-1.3,2-2.1,3.1-2.6c1.2-0.5,2.5-0.4,4.1,0.1
		C801,214.2,801.9,214.7,802.5,215.4L802.5,215.4z"/>
	<path class="st1" d="M832.6,236.2c0.7-1.4,1.4-2.9,2.1-4.4c0.3-0.7,0.6-1.5,0.7-2.3c0.2-0.8,0.1-1.6-0.1-2.4
		c-0.3-0.8-0.8-1.6-1.6-2.4c-0.8-0.8-2-1.5-3.6-2.2c-1.9-0.8-3.6-1.2-5.1-1.4c-1.5-0.2-2.9-0.2-4.1-0.2c-0.6,1.4-1.2,2.8-1.7,4.2
		c1.3,0.5,2.5,1,3.8,1.5c0.5-1.1,1-2.2,1.4-3.4c0.6,0,1.3,0.1,1.9,0.3c0.7,0.2,1.3,0.4,1.8,0.7c1.5,0.6,2.4,1.5,2.6,2.5
		c0.2,1,0,2.3-0.6,3.8c-0.2,0.3-0.3,0.7-0.5,1c-0.2,0.4-0.3,0.7-0.6,1.1c-2.2-0.9-4.2-1.6-5.9-2.1c-1.7-0.5-3.3-0.7-4.6-0.7
		c-1.3,0-2.4,0.3-3.3,0.9c-0.9,0.6-1.6,1.5-2.1,2.7c-0.3,0.8-0.5,1.6-0.4,2.3c0,0.8,0.3,1.5,0.7,2.2c0.4,0.7,0.9,1.3,1.6,1.9
		c0.7,0.6,1.5,1,2.4,1.4c0.9,0.4,1.8,0.6,2.7,0.7c0.9,0.1,1.6,0.1,2.4-0.1c0.7-0.1,1.4-0.4,1.9-0.7c0.6-0.3,1-0.7,1.4-1.1
		c0.1,0,0.1,0.1,0.2,0.1c-0.4,1.2-0.8,2.5-1.1,3.7c2.2,0.9,4.3,1.8,6.5,2.8c0.3-0.6,0.6-1.2,0.8-1.8c-0.9-0.4-1.8-0.8-2.7-1.2
		c0.2-0.5,0.4-1,0.6-1.6c0.2-0.6,0.5-1.2,0.7-1.7C831.2,238.9,831.9,237.6,832.6,236.2L832.6,236.2z M817.9,237.6
		c-0.4-0.8-0.4-1.8,0.1-3c0.2-0.5,0.6-1,1-1.4c0.4-0.4,1-0.6,1.8-0.7c0.8-0.1,1.8,0,3,0.2c1.2,0.2,2.7,0.7,4.5,1.5
		c-0.6,1.5-1.3,2.9-1.9,4.4c-0.3,0.2-0.7,0.5-1.2,0.7c-0.4,0.2-0.9,0.4-1.4,0.5c-0.5,0.1-1.1,0.2-1.7,0.1c-0.6,0-1.2-0.2-1.9-0.4
		C819.1,239.1,818.3,238.4,817.9,237.6z"/>
	<path class="st1" d="M849,252.4c-0.9-0.4-1.8-0.8-2.7-1.2c1.1-2.3,2.2-4.6,3.3-6.9c3.3,1.5,6.6,3.1,9.9,4.7
		c-1.2,2.3-2.3,4.6-3.5,6.8c-0.9-0.4-1.8-0.8-2.6-1.3c-0.3,0.6-0.6,1.2-0.9,1.8c3.3,1.6,6.5,3.1,9.7,4.7c0.3-0.6,0.6-1.2,0.9-1.8
		c-1-0.5-2-1-2.9-1.5c2.6-5.1,5.3-10.2,7.9-15.3c1,0.5,2,1,3,1.5c0.3-0.6,0.6-1.2,0.9-1.8c-3.3-1.7-6.7-3.3-10.1-4.9
		c-0.3,0.6-0.6,1.2-0.9,1.8c0.9,0.4,1.8,0.9,2.7,1.3c-1.1,2.2-2.2,4.3-3.3,6.5c-3.3-1.6-6.6-3.2-10-4.7c1.1-2.2,2.1-4.4,3.2-6.6
		c0.9,0.4,1.8,0.8,2.7,1.3c0.3-0.6,0.6-1.2,0.9-1.8c-3.4-1.6-6.8-3.1-10.2-4.6c-0.3,0.6-0.6,1.2-0.9,1.8c1,0.5,2,0.9,3.1,1.4
		c-2.5,5.2-4.9,10.4-7.4,15.6c-1-0.5-2-0.9-3-1.3c-0.3,0.6-0.6,1.2-0.9,1.8c3.3,1.5,6.6,3,9.8,4.5C848.4,253.6,848.7,253,849,252.4z
		"/>
	<g>
		<path class="st0" d="M561.1,265.1c-0.8,0-1.4,0.3-1.7,1c-0.3,0.7-0.4,2.2-0.4,4.7v23.3c0,2.8,0.2,4.4,0.4,5
			c0.2,0.6,0.8,0.9,1.6,0.9c0.8,0,1.4-0.3,1.7-1c0.3-0.7,0.5-2.2,0.5-4.5v-23.6c0-2.5-0.2-4.1-0.4-4.8
			C562.5,265.4,561.9,265.1,561.1,265.1z"/>
		<path class="st0" d="M589.7,265.1c-0.8,0-1.4,0.3-1.6,1c-0.3,0.7-0.4,2.2-0.4,4.7v23.3c0,2.8,0.1,4.4,0.4,5
			c0.2,0.6,0.8,0.9,1.6,0.9c0.8,0,1.5-0.3,1.7-1c0.3-0.7,0.5-2.2,0.5-4.5v-23.6c0-2.5-0.2-4.1-0.4-4.8
			C591.2,265.4,590.5,265.1,589.7,265.1z"/>
		<path class="st0" d="M566.1,224.2l-56.3,18.1c0,0,0,42.8,0,62.1c0,19.3,56.1,46.6,56.1,46.6s56.1-26.5,56.1-46.6
			c0-20.1,0-62.1,0-62.1L566.1,224.2z M544.9,306.2h-11v-25.4c0-3.7,0-5.9-0.2-6.7c-0.2-0.7-0.6-1.4-1.3-1.8
			c-0.7-0.4-2.4-0.7-4.9-0.7h-0.9v-5.4c5.2-1.2,9.2-4,12-7.7h6.3V306.2z M574.1,290.7c0,3.6-0.2,6.2-0.6,7.9
			c-0.4,1.7-1.1,3.2-2.3,4.6c-1.1,1.4-2.5,2.5-4.2,3.1c-1.6,0.6-3.4,0.9-5.4,0.9c-2.6,0-4.8-0.3-6.6-1c-1.8-0.7-3.1-1.7-4.2-3.1
			c-1-1.4-1.8-2.9-2.2-4.4c-0.4-1.5-0.7-4-0.7-7.4v-16.6c0-4.4,0.3-7.7,1-9.8c0.7-2.2,2.1-3.9,4.2-5.2c2.1-1.3,4.6-2,7.6-2
			c2.4,0,4.6,0.5,6.5,1.4c1.9,0.9,3.3,2,4.3,3.3c0.9,1.3,1.6,2.8,2,4.4c0.3,1.6,0.5,4.3,0.5,7.9V290.7z M602.8,290.7
			c0,3.6-0.2,6.2-0.6,7.9c-0.4,1.7-1.2,3.2-2.3,4.6c-1.1,1.4-2.5,2.5-4.2,3.1c-1.6,0.6-3.4,0.9-5.5,0.9c-2.6,0-4.8-0.3-6.6-1
			c-1.8-0.7-3.1-1.7-4.2-3.1c-1-1.4-1.7-2.9-2.2-4.4c-0.4-1.5-0.6-4-0.6-7.4v-16.6c0-4.4,0.3-7.7,1-9.8c0.7-2.2,2.1-3.9,4.2-5.2
			c2.1-1.3,4.6-2,7.6-2c2.4,0,4.6,0.5,6.5,1.4c1.9,0.9,3.3,2,4.3,3.3c0.9,1.3,1.6,2.8,2,4.4c0.3,1.6,0.6,4.3,0.6,7.9V290.7z"/>
	</g>
	<path class="st1" d="M678,463.8c0,0-191-107.1-213.4-118.9c-2.7-1.4-3.1-2.6-1.8-6.3c1.2-3.6,2.6-7.9,3.5-11.8
		c0.7-3.3,0.2-6.2-3.8-7.8c-19.7-8.2-87-41-87-41l-8.6-2.5l84.2,47.9c0,0,5.8,2.1,1.8,8.1c-2.7,4.1-7.2,0.9-7.2,0.9l-85.6-45.1
		l82.9,52.3c0,0,4.7,1.7,0.9,7.2c-2.9,4.2-5.4,1.8-5.4,1.8l-85.7-48.6l6.5,6.2c0,0,64.2,42.1,80.1,54.5c3.4,2.7,6.1,1,9.9-3.1
		c2.5-2.7,5.1-5.1,7.2-7.2c2.6-2.6,3.2-2.6,7.2,0c28.3,18.6,209.2,121.6,209.2,121.6s2.1-0.6,3.3-2.6
		C677.8,466.7,678,463.8,678,463.8z"/>
	<path class="st1" d="M725.7,293.4c-100.8,48.2-109.5,62.4-121.5,77.9c-4.8,6.2-4.5,9.1-6.2,10.1c-1.6,1-152.2,90.5-152.2,90.5
		l25.2-8.1c0,0,131.9-71.8,133.5-72.7c1.6-0.9,6.1-2,14.3-0.3c29.3,6,42.7,17.8,96.9-28.5s63.4-83.3,63.4-83.3
		S752.9,280.4,725.7,293.4z M630.2,384.6c-4.4-2.7-6.4-7,6.5-16.2c11.4-8.1,79.3-50.7,79.3-50.7l-101.9,54c0,0,0-22.7,102-69.2
		c10.2-4.6,30-13.6,39.1-13.3c3.5,16.4-5.5,27.4-10.1,33.4C692.8,392.8,641.5,391.4,630.2,384.6z"/>
</g>
</svg>
