<?xml version="1.0" encoding="utf-8"?>
<!-- Generator: Adobe Illustrator 21.0.0, SVG Export Plug-In . SVG Version: 6.00 Build 0)  -->
<svg version="1.1" id="Layer_1" xmlns="http://www.w3.org/2000/svg" xmlns:xlink="http://www.w3.org/1999/xlink" x="0px" y="0px"
	 viewBox="0 0 983.6 373.4" style="enable-background:new 0 0 983.6 373.4;" xml:space="preserve">
<style type="text/css">
	.st0{fill:#FFFFFF;}
</style>
<g>
	<g>
		<polygon class="st0" points="414.2,257.5 431.2,257.5 422.9,231 		"/>
		<path class="st0" d="M512.9,224.5H503v52.6h9.2c5.7,0,10.2-2.1,13.3-6.2s4.6-11,4.6-20.6c0-9.1-1.4-15.7-4.4-19.7
			C522.8,226.5,518.5,224.5,512.9,224.5z"/>
		<path class="st0" d="M784.7,187.7H578.5c0-7.8,0-12.6,0-12.6l-86.1-24.8l-86.5,24.8c0,0,0,4.8,0,12.6H201.1l21.7,66.3l-21.7,66.5
			H410c17.1,24.7,82.2,52.9,82.2,52.9s65.7-27.6,82.5-52.9h210L763,254L784.7,187.7z M371.8,290.2h-20.4l-9.3-20.7
			c-2-4.5-3.6-7.3-4.7-8.5s-3.1-1.8-5.9-1.8h-3.9v18.5l8,2.8v9.7h-33.4v-9.7l8.3-2.8v-53.2l-8.3-3.4v-9.3l25.4-0.6h8.4
			c9.2,0,16.3,1.9,21.3,5.8c5,3.8,7.5,9.5,7.5,17.1c0,9.9-4.2,17-12.5,21.2c1.8,2.2,3.4,4.6,4.6,7.3l7.4,15.3l7.5,2.6V290.2z
			 M464.4,290.2h-35.1v-9.7l8.3-2.6l-2.7-8.4h-24.5l-2.8,8.3l8.6,2.7v9.7h-33.4v-9.7l8.1-2.6l24.3-66.3l17.7-0.3l23.8,66.6l7.7,2.6
			V290.2L464.4,290.2z M538.7,279.3c-6.6,7.2-15.6,10.9-26.9,10.9h-34.3v-9.7l8.3-2.8v-53.2l-8.3-3.4v-9.3l25.4-0.6h10.5
			c11.2,0,19.9,3.3,26,9.8c6.1,6.6,9.2,16.1,9.2,28.5C548.6,262.2,545.3,272.1,538.7,279.3z M596.2,221.1l-8.3,3.4v53.2l8.3,2.8v9.7
			h-33.7v-9.7l8.3-2.8v-53.2l-8.3-3.4v-9.3l33.7-0.6V221.1z M670.8,280.1c-6.8,7.7-15.8,11.5-26.8,11.5s-19.5-3.4-25.4-10.3
			s-8.8-16.9-8.8-30c0-12.8,3.3-22.9,9.8-30.3s15.4-11.1,26.7-11.1c11.1,0,19.6,3.5,25.7,10.5c6.1,7,9.1,16.7,9.1,29.3
			C681.1,262.3,677.7,272.4,670.8,280.1z"/>
		<path class="st0" d="M336.6,224.5h-9.1v22.9h6.3c4.3,0,7.7-1,10.2-3.1c2.4-2,3.7-4.9,3.7-8.7c0-3.3-1-6.1-3-8.1
			C342.7,225.5,340,224.5,336.6,224.5z"/>
		<path class="st0" d="M645.7,223.9c-5.7,0-10.1,2.1-13,6.2s-4.4,11-4.4,20.6c0,9.2,1.3,15.9,4,20.3s6.8,6.6,12.3,6.6
			c5.8,0,10.3-2.2,13.3-6.4c3.1-4.3,4.6-11.3,4.6-21c0-9.1-1.4-15.8-4.2-20C655.5,226,651.3,223.9,645.7,223.9z"/>
	</g>
	<g>
		<path class="st0" d="M35,100.3l-4-8.9L0,105.8l3.7,8.4l8.9-0.3L26.9,146c4.4,9.9,9.8,16.1,16.3,18.7c6.5,2.6,14.7,1.7,24.7-2.7
			c10.5-4.7,16.9-10.5,19.2-17.4c2.3-7,1.1-15.5-3.4-25.6L70.1,88.4l6.2-6.4l-4-8.9l-31,14.4l3.7,8.4l9.2-0.5L67.8,126
			c2.8,6.3,4,11.3,3.4,14.8c-0.5,3.5-3.4,6.4-8.5,8.7c-4.9,2.2-8.8,2.4-11.9,0.9c-3.1-1.6-5.9-5.3-8.5-11.2L28,107.1L35,100.3z"/>
		<path class="st0" d="M148.3,116.9l-5.4-17.5l3.7-1.1c2.7-0.8,4.7-0.8,6.2-0.1c1.4,0.8,3.8,3,7,6.7l14.9,16.8l19.6-6.1l-2.9-9.2
			l-7.9-0.2l-11.6-12.3c-2-2.2-4.2-4-6.6-5.5c6.8-6.4,8.7-14.3,5.8-23.7c-2.2-7.1-6.3-11.8-12.1-13.9c-5.9-2.2-13.2-1.9-22.1,0.9
			l-8,2.5l-24.2,8.1l2.7,8.8l8.9,0.7l15.6,50.3l-7.1,5.1l2.9,9.2l32-9.9l-2.8-9.2L148.3,116.9z M141.4,63.9c3.2-1,6.1-0.8,8.6,0.5
			c2.5,1.4,4.3,3.6,5.2,6.8c1.1,3.5,0.8,6.6-1,9.3c-1.7,2.7-4.7,4.6-8.8,5.9l-6,1.9l-6.7-21.7L141.4,63.9z"/>
		<path class="st0" d="M199.8,34.4l1.9,9l8.8,1.5l10.9,51.5c-3.4,1.9-5.9,3.4-7.6,4.4l2,9.4l34.1-7.2c18.8-4,26.6-13.5,23.4-28.4
			c-1.8-8.6-8.2-13.3-19.2-14.1c8.1-4.6,11.2-11.5,9.2-20.7c-1.3-6.2-4.5-10.4-9.4-12.7c-5-2.2-11.1-2.6-18.4-1l-11.4,2.4
			L199.8,34.4z M251,70.4c2.7,1.4,4.5,4,5.3,7.9c0.6,3,0.2,5.6-1.5,7.8c-1.6,2.2-4.3,3.6-8.1,4.4l-9,1.9l-4.5-21.2l6.3-1.3
			C244.5,68.9,248.3,69.1,251,70.4z M236.2,39.5c2.7-0.6,5.1-0.3,7.1,0.7s3.3,2.9,3.9,5.7c1.4,6.7-1.9,11-10,12.7l-6.3,1.3L227,41.5
			L236.2,39.5z"/>
		<path class="st0" d="M323.1,11.8L307,80l-7.7,3.5l1.2,9.6l33.2-4.1l-1.2-9.6l-8.9-1.6l1.7-8.5l24.4-3l3.7,7.9l-7.9,3.6l1.2,9.6
			l35-4.3l-1.2-9.6l-8-1.6L340.7,9.4L323.1,11.8z M344.6,55l-16.9,2.1l5.5-27.2L344.6,55z"/>
		<path class="st0" d="M426.4,68l-1.5-37.8l31.6,49l18.5-0.7l-2.6-65l8.2-3.7L480.2,0l-31.5,1.8l0.4,9.2l8.2,3l1.5,38.1l-31.9-50
			l-26.6,1.6l0.4,9.2l8.4,3l2.1,52.6l-8.2,3.1l0.4,9.6l32.1-1.3l-0.4-9.6L426.4,68z"/>
		<path class="st0" d="M554,55.9l-1.5,21.2l3.3,1.2c2.2,0.9,5.4,1.8,9.5,2.8s8,1.6,11.6,1.9c8.8,0.6,16.1-1.2,22-5.3
			c5.9-4.2,9.1-10.2,9.6-18.3c0.3-4.1-0.4-7.7-2-10.8c-1.6-3.2-3.8-5.6-6.4-7.3c-2.7-1.7-5.6-3.4-8.7-4.9c-3.1-1.5-6-2.8-8.7-3.9
			c-2.7-1-4.9-2.4-6.7-4c-1.7-1.6-2.5-3.4-2.4-5.4c0.1-2.3,1.3-4.1,3.4-5.4c2.1-1.3,5.1-1.9,8.8-1.6c3.2,0.2,6.4,1,9.6,2.3l2.1,9.6
			l10.2,0.7l1.9-20.1l-3.2-1.3c-2.2-0.9-5.3-1.8-9.3-2.9c-4-1-7.8-1.7-11.5-1.9c-8.3-0.6-15.2,1-20.7,4.7s-8.5,9.3-9,16.8
			c-0.3,4.3,0.4,8,2,11.3s3.8,5.8,6.4,7.6c2.6,1.8,5.5,3.5,8.7,5.1c3.1,1.6,6.1,2.9,8.8,3.9s4.9,2.3,6.7,3.9
			c1.7,1.6,2.5,3.4,2.4,5.4c-0.2,2.8-1.6,4.9-4.3,6.3s-5.9,2-9.7,1.7c-4.3-0.3-7.8-1.3-10.7-3.1l-1-9.4L554,55.9z"/>
		<path class="st0" d="M660.6,77.6l2.1-14.6l5.8,0.8c10.1,1.4,18.2,0.2,24.2-3.6c6-3.9,9.7-10.3,11-19.4c1-7.2-0.5-13.2-4.7-17.9
			c-4.1-4.8-10.4-7.7-18.7-8.9l-10.4-1.5l-25.3-3l-1.3,9.1l7.8,4.4l-7.3,52.2l-8.6,1.6l-1.4,9.6l33.5,4.7l1.3-9.6L660.6,77.6z
			 M676.7,26.6c3.7,0.5,6.3,2,7.9,4.6c1.6,2.5,2.2,5.6,1.7,9.3c-0.6,4-2.2,6.9-5,8.7c-2.7,1.8-6.4,2.3-11,1.7l-5.8-0.8l3.5-24.7
			L676.7,26.6z"/>
		<path class="st0" d="M764.9,29.7l-38.4,58.5l-8.4,0.7l-2.2,9.4l32.6,7.5l2.2-9.4l-7.8-4.5l4.5-7.4l24,5.5l0.8,8.7l-8.7,0.6
			l-2.2,9.4l34.3,7.9l2.2-9.4l-7-4.2l-8.5-69.6L764.9,29.7z M770.4,77.6l-16.6-3.8l14.4-23.7L770.4,77.6z"/>
		<path class="st0" d="M880,88l10.3,3.4l7.2-19.8l-2.9-2.4c-1.9-1.6-4.7-3.4-8.5-5.6c-3.8-2.2-7.6-3.9-11.4-5.1
			c-10.9-3.6-20.7-3-29.4,1.9s-15.1,13.5-19.2,25.8c-4,12.1-4.2,22.3-0.4,30.6c3.7,8.3,11,14.2,21.7,17.8c3.1,1,6.3,1.6,9.6,1.8
			s6.2,0.1,8.5-0.2c2.4-0.3,4.7-0.8,7-1.5s3.8-1.2,4.6-1.6c0.7-0.3,1.3-0.6,1.7-0.8l-2.6-11.4l-3.2,0.9c-2.2,0.6-5.2,1-9,1.2
			c-3.7,0.1-7.1-0.3-10.2-1.4c-11.9-4-15.2-14-9.9-30.2c5.7-17.2,14.3-23.9,25.9-20c4.6,1.5,8.3,3.4,11.2,5.6L880,88z"/>
		<path class="st0" d="M966.2,111.1l-0.9,8.7l9.4,4.3l8.9-19.5l-28.2-12.9L932,81.6l-3.8,8.4l6.2,6.5l-21.9,47.9l-8.7-1l-4,8.8
			l52.6,24.1l9.2-20.2l-9.3-4.3l-6.1,7.3l-17.8-8.2l8.9-19.5l20.3,9.3l5.1-11.1l-20.3-9.3l7.7-16.8L966.2,111.1z"/>
	</g>
</g>
</svg>
