<?xml version="1.0" encoding="utf-8"?>
<!-- Generator: Adobe Illustrator 21.0.0, SVG Export Plug-In . SVG Version: 6.00 Build 0)  -->
<svg version="1.1" id="Layer_1" xmlns="http://www.w3.org/2000/svg" xmlns:xlink="http://www.w3.org/1999/xlink" x="0px" y="0px"
	 viewBox="0 0 1132 556" style="enable-background:new 0 0 1132 556;" xml:space="preserve">
<style type="text/css">
	.st0{fill-rule:evenodd;clip-rule:evenodd;fill:#231F20;}
	.st1{fill:#231F20;}
</style>
<g>
	<g>
		<path class="st1" d="M249.5,221.4h36.8v68.8c0,4.6-0.9,8.5-2.8,11.9c-1.9,3.4-4.4,6.2-7.4,8.5c-3.1,2.3-6.6,4-10.5,5.2
			c-3.9,1.2-7.9,1.7-12.1,1.7c-3.5,0-6.9-0.4-10.3-1.3c-3.4-0.8-6.5-2.1-9.3-3.9c-2.8-1.7-5.2-3.9-7.2-6.6c-2-2.6-3.5-5.7-4.4-9.2
			l5-1.1c0.7,2.9,2,5.4,3.7,7.5c1.8,2.1,3.9,3.9,6.3,5.4c2.4,1.4,5,2.5,7.9,3.2c2.9,0.7,5.8,1.1,8.7,1.1c3.4,0,6.7-0.5,10-1.4
			c3.3-0.9,6.2-2.3,8.7-4.2c2.5-1.9,4.6-4.2,6.2-7c1.6-2.8,2.3-6.1,2.3-9.8v-63.6h-31.6V221.4z"/>
		<path class="st1" d="M305.1,266.7c0-3.6,0.7-6.7,2.1-9.3c1.4-2.6,3.3-4.8,5.7-6.6c2.4-1.8,5-3.1,8-4c3-0.9,6-1.3,9.2-1.3
			c3.1,0,6.2,0.4,9.2,1.3c3,0.9,5.6,2.2,8,4c2.3,1.8,4.2,4,5.6,6.6c1.4,2.6,2.1,5.7,2.1,9.3v29.5c0,3.6-0.7,6.7-2.1,9.3
			c-1.4,2.6-3.3,4.8-5.6,6.6c-2.3,1.8-5,3.1-8,4c-3,0.9-6,1.3-9.2,1.3c-3.1,0-6.2-0.4-9.2-1.3c-3-0.9-5.7-2.2-8-4
			c-2.4-1.8-4.3-4-5.7-6.6c-1.4-2.6-2.1-5.7-2.1-9.3V266.7z M330.1,250.4c-2.4,0-4.8,0.3-7.2,0.9c-2.4,0.6-4.6,1.6-6.5,2.9
			c-1.9,1.3-3.5,3-4.7,5.1c-1.2,2.1-1.8,4.5-1.8,7.4v29.5c0,2.9,0.6,5.3,1.8,7.4c1.2,2.1,2.8,3.8,4.7,5.2c1.9,1.3,4.1,2.3,6.5,2.9
			c2.4,0.6,4.8,0.9,7.2,0.9c2.4,0,4.8-0.3,7.2-0.9c2.4-0.6,4.6-1.6,6.4-2.9c1.9-1.3,3.4-3.1,4.6-5.2c1.2-2.1,1.8-4.6,1.8-7.4v-29.5
			c0-2.9-0.6-5.3-1.8-7.4c-1.2-2.1-2.7-3.7-4.6-5.1c-1.9-1.3-4-2.3-6.4-2.9C334.9,250.7,332.5,250.4,330.1,250.4z"/>
		<path class="st1" d="M422.6,321.9c0,3.6-0.7,6.6-2.1,9.2c-1.4,2.6-3.2,4.7-5.6,6.4c-2.3,1.7-5,2.9-7.9,3.7c-2.9,0.8-5.9,1.2-9,1.2
			c-4,0-7.9-0.6-11.6-1.9c-3.7-1.2-6.9-3.1-9.4-5.5l2.9-2.9c2.3,1.9,5.1,3.3,8.2,4.3c3.2,1,6.4,1.5,9.7,1.5c2.7,0,5.2-0.3,7.6-0.9
			c2.4-0.6,4.5-1.6,6.4-2.8c1.8-1.3,3.3-2.9,4.4-4.9c1.1-2,1.6-4.4,1.6-7.2v-9.5c-3.6,1.8-7,3.1-10.3,3.8c-3.3,0.8-6.5,1.1-9.6,1.1
			c-3.1,0-6.2-0.4-9.2-1.3c-3-0.9-5.6-2.2-8-3.9c-2.3-1.7-4.2-3.9-5.6-6.6c-1.4-2.6-2.1-5.7-2.1-9.2v-49.5h4.8v49.5
			c0,2.8,0.6,5.2,1.7,7.3c1.1,2.1,2.6,3.8,4.4,5.2c1.8,1.4,3.9,2.4,6.3,3.1c2.4,0.7,4.8,1.1,7.4,1.1c2.1,0,4-0.1,5.6-0.3
			c1.6-0.2,3.1-0.5,4.6-0.9c1.5-0.4,3-0.9,4.6-1.6c1.6-0.7,3.4-1.5,5.4-2.3v-61.1h4.7V321.9z"/>
		<path class="st1" d="M481.4,316.2h-5.2v-94.8h9.1l32.8,74.4l32.9-74.4h8.8v94.8h-5.2v-90.8l-33.7,76.5h-5.6l-33.9-76.6V316.2z"/>
		<path class="st1" d="M581.3,296.3v-49.5h4.8v49.5c0,2.8,0.6,5.2,1.7,7.2c1.2,2.1,2.7,3.7,4.5,5.1c1.8,1.3,3.9,2.3,6.2,2.9
			c2.3,0.6,4.7,0.9,7.1,0.9c3.8,0,7.6-0.4,11.4-1.3c3.7-0.8,6.8-1.8,9.1-2.7v-61.7h4.8v65.6c-4,1.4-8.1,2.6-12.4,3.6
			c-4.2,1-8.5,1.5-12.9,1.5c-3-0.1-6-0.6-9-1.5c-2.9-0.9-5.6-2.2-7.8-3.9c-2.3-1.7-4.1-3.9-5.5-6.6
			C582,302.9,581.3,299.8,581.3,296.3z"/>
		<path class="st1" d="M650.9,296.9v-75.5h4.8v75.5c0,5.1,1.1,9,3.2,11.7c2.1,2.7,5.6,4.1,10.4,4.1v4.8c-6-0.2-10.6-2-13.7-5.4
			C652.5,308.6,650.9,303.6,650.9,296.9z"/>
		<path class="st1" d="M701.9,317.4c-2.4,0-4.8-0.3-7.1-0.8c-2.8-0.7-5.2-1.9-7.3-3.7c-2.1-1.7-3.8-4-5-6.8
			c-1.3-2.8-1.9-6.1-1.9-9.9v-64.9h4.4l0.4,15.5h15v4.6h-15v44.9c0,3.1,0.6,5.8,1.7,8c1.1,2.2,2.5,3.9,4.3,5.3
			c1.7,1.3,3.7,2.3,5.8,2.8c1.7,0.4,3.3,0.7,5,0.7c0.5,0,1.1,0,1.6-0.1v4.6C703.2,317.4,702.6,317.4,701.9,317.4z"/>
		<path class="st1" d="M713.7,230.7c0-1.4,0.5-2.6,1.5-3.6c1-1,2.2-1.5,3.6-1.5c1.4,0,2.6,0.5,3.6,1.5c1,1,1.5,2.2,1.5,3.6
			s-0.5,2.6-1.5,3.6c-1,1-2.2,1.5-3.6,1.5c-1.4,0-2.6-0.5-3.6-1.5C714.2,233.4,713.7,232.2,713.7,230.7z M720.7,316.2h-4.8v-69.4
			h4.8V316.2z"/>
		<path class="st1" d="M762.9,245.5c4.2,0,8.2,0.6,11.9,1.9c3.7,1.3,7.2,3.8,10.3,7.8c1.5-2.1,3.1-3.7,4.7-5
			c1.6-1.2,3.2-2.2,4.9-2.9c1.7-0.7,3.3-1.1,5.1-1.3c1.7-0.2,3.5-0.4,5.3-0.5c0.3,0,0.6,0,0.9,0c2.9,0,5.8,0.4,8.6,1.1
			c2.9,0.9,5.5,2.3,7.8,4.1c2.2,1.8,4,4.2,5.4,7c1.3,2.8,2,6,2,9.7v48.9h-5v-48.6c0-0.4,0-0.9,0-1.5c0-3.1-0.8-5.8-2.3-7.9
			c-1.8-2.5-4.1-4.4-6.8-5.7c-2.8-1.3-5.8-2-9.1-2.1c-0.3,0-0.5,0-0.8,0c-3,0-5.8,0.5-8.3,1.5c-2.9,1-5.2,2.5-7.2,4.7
			c-1.9,2.1-2.9,4.8-2.9,8v51.5h-4.7v-51.5c0-3.8-1.4-6.7-4.2-8.9c-2.8-2.2-6.1-3.7-10-4.5c-2.3-0.4-4.6-0.7-7-0.7
			c-1.7,0-3.4,0.1-5.1,0.3c-4.2,0.6-7.6,1.8-10.3,3.5v61.9h-5v-65.1c2.9-2.1,6.2-3.5,10-4.4C755,245.9,758.9,245.5,762.9,245.5z"/>
		<path class="st1" d="M852.7,296.3c0,2.9,0.6,5.3,1.7,7.3c1.1,2,2.6,3.7,4.5,5c1.9,1.3,4,2.3,6.4,2.9c2.4,0.6,4.9,0.9,7.5,0.9
			c3.7,0,7.3-0.7,10.6-2.1c3.3-1.4,5.8-3.6,7.6-6.6l4.4,2.3c-1.1,2-2.4,3.7-4,5.1c-1.6,1.4-3.4,2.6-5.4,3.5s-4.1,1.6-6.4,2.1
			c-2.2,0.4-4.5,0.7-6.8,0.7c-3.1,0-6.2-0.4-9.2-1.3c-3-0.9-5.7-2.2-8-3.9c-2.4-1.7-4.3-3.9-5.7-6.6c-1.4-2.6-2.1-5.7-2.1-9.3v-29.7
			c0-3.6,0.7-6.7,2.1-9.3c1.4-2.6,3.3-4.8,5.7-6.6c2.4-1.7,5-3.1,8-3.9c3-0.9,6-1.3,9.2-1.3c3,0,6,0.4,9,1.3c3,0.9,5.7,2.2,8,3.9
			c2.4,1.7,4.3,3.9,5.7,6.6c1.4,2.6,2.1,5.7,2.1,9.3v18.2h-45V296.3z M892.9,266.3c0-2.8-0.6-5.2-1.7-7.2c-1.2-2-2.7-3.7-4.6-5
			c-1.9-1.3-4-2.3-6.4-3c-2.4-0.7-4.9-1-7.4-1c-2.6,0-5.1,0.3-7.5,1c-2.4,0.7-4.6,1.7-6.4,3s-3.4,3-4.5,5c-1.1,2-1.7,4.4-1.7,7.2
			v14.1h40.2V266.3z"/>
		<path class="st1" d="M913.1,266.6c0-3.5,0.7-6.5,2.1-9.2c1.4-2.6,3.3-4.8,5.6-6.6c2.3-1.8,5-3.1,8-4c3-0.9,6.1-1.3,9.2-1.3
			c3.2,0,6.5,0.4,10,1.1c3.4,0.7,6.9,1.8,10.2,3.3v-28.5h4.8v92c-4,1.3-8.2,2.3-12.5,3c-4.3,0.8-8.6,1.1-13,1.1
			c-3.1-0.1-6.2-0.6-9.1-1.5c-2.9-0.9-5.6-2.2-7.8-3.9c-2.3-1.7-4.1-3.9-5.6-6.6c-1.4-2.6-2.1-5.7-2.1-9.2V266.6z M938,250.3
			c-2.6,0-5.1,0.3-7.4,1c-2.4,0.7-4.5,1.7-6.4,3c-1.9,1.3-3.4,3-4.5,5c-1.1,2-1.7,4.4-1.7,7.2v29.9c0,2.8,0.6,5.2,1.7,7.2
			c1.1,2.1,2.6,3.8,4.4,5.2c1.8,1.4,3.9,2.4,6.3,3.1c2.4,0.7,4.8,1,7.3,1c3.3,0,6.7-0.2,10.1-0.7c3.4-0.4,6.9-1.3,10.5-2.5v-54.9
			c-3.4-1.5-6.8-2.6-10.2-3.3C944.7,250.6,941.3,250.3,938,250.3z"/>
		<path class="st1" d="M981.5,230.7c0-1.4,0.5-2.6,1.5-3.6c1-1,2.2-1.5,3.6-1.5c1.4,0,2.6,0.5,3.6,1.5c1,1,1.5,2.2,1.5,3.6
			s-0.5,2.6-1.5,3.6c-1,1-2.2,1.5-3.6,1.5c-1.4,0-2.6-0.5-3.6-1.5C982,233.4,981.5,232.2,981.5,230.7z M988.5,316.2h-4.8v-69.4h4.8
			V316.2z"/>
		<path class="st1" d="M1049.5,265.8c0-2.8-0.6-5.2-1.7-7.2c-1.2-2-2.7-3.7-4.6-5c-1.9-1.3-4.1-2.2-6.6-2.8c-2.5-0.6-5-0.9-7.6-0.9
			c-6.6,0-12.4,2.3-17.3,6.8l-2.9-3.2c2.9-2.9,6.1-5,9.6-6.3c3.6-1.2,7.4-1.9,11.4-1.9c3.1,0,6.2,0.4,9.1,1.3
			c2.9,0.8,5.6,2.1,7.8,3.8c2.3,1.7,4.1,3.8,5.5,6.4c1.4,2.5,2.1,5.5,2.1,8.9v47.8c-4.3,1.4-8.7,2.5-13.3,3.1c-4,0.5-8,0.8-12,0.8
			c-0.6,0-1.2,0-1.7,0c-3.2,0-6.2-0.5-9-1.4c-2.8-0.9-5.2-2.3-7.2-4.1c-2.1-1.8-3.7-4.1-4.9-6.7c-1.2-2.6-1.8-5.6-1.8-9
			c0-3.8,0.7-7.1,2.1-9.8c1.4-2.7,3.3-4.9,5.7-6.6c2.4-1.7,5.1-2.9,8.2-3.7c3.1-0.8,6.3-1.1,9.6-1.1c3,0,6.3,0.3,9.7,0.9
			c3.4,0.6,6.7,1.6,9.8,3V265.8z M1029.8,279.2c-2.7,0-5.3,0.3-7.8,0.8c-2.5,0.5-4.7,1.5-6.6,2.8c-1.9,1.3-3.5,3.1-4.6,5.3
			c-1.2,2.2-1.7,4.9-1.7,8.1c0,2.9,0.5,5.5,1.4,7.6c0.9,2.1,2.3,3.9,4,5.3c1.7,1.4,3.7,2.4,5.9,3.1c2.2,0.7,4.7,1,7.4,1
			c0.7,0,1.4,0,2,0c3,0,5.9-0.2,8.7-0.5c3.3-0.4,7-1.1,11.1-2.1v-27.3c-2.7-1.1-5.8-2-9.3-2.8
			C1036.7,279.6,1033.2,279.2,1029.8,279.2z"/>
	</g>
	<g>
		<path class="st1" d="M147.4,288l30.1-67.9c-1.1-0.3-2.1-0.6-2.8-0.7c-17-4.1-32.9-6.1-52.9-5.8c-0.9,0-4.1,0.2-6.9,0.5L147.4,288z
			"/>
		<path class="st1" d="M105.5,215.7c-6.6,1.6-15.6,4.4-18.9,6.8c-18.9,14.6-3.4,41.4,4.5,57.3c3,5.8,5.8,11.3,9.4,16.6
			c1.2,1.8,3,4.2,4.9,6.8V215.7z"/>
		<path class="st1" d="M184,222.1c-0.6-0.2-1.2-0.4-1.7-0.6l-32,72.5h-5.6l-33.9-76.6v90.9h-1.2c1.8,2.3,3.6,4.4,5.1,5.9
			c4.1,4.2,9.4,6.8,15.1,8.5c17.4,5.1,36.6-3.4,51.8-14.2c0.7-0.5,1.6-1.1,2.5-1.8V222.1z"/>
		<path class="st1" d="M215.8,237.4c-4.9-4.4-11-7.4-17.4-10.2c-1-0.4-4.9-1.8-9.3-3.3v79c3.5-2.6,7-5.3,9.3-7.2
			c0.8-0.6,1.5-1.4,2.3-2C217,279.4,237.8,255.3,215.8,237.4z"/>
	</g>
</g>
</svg>
