<?xml version="1.0" encoding="utf-8"?>
<!-- Generator: Adobe Illustrator 21.0.0, SVG Export Plug-In . SVG Version: 6.00 Build 0)  -->
<svg version="1.1" id="Layer_1" xmlns="http://www.w3.org/2000/svg" xmlns:xlink="http://www.w3.org/1999/xlink" x="0px" y="0px"
	 viewBox="0 0 250 60.8" style="enable-background:new 0 0 250 60.8;" xml:space="preserve">
<style type="text/css">
	.st0{fill:#FFFFFF;}
</style>
<path class="st0" d="M11.4,31.4H2.2v10.2H0V20.1h2.2v9.5h9.2v-9.5h2.2v21.5h-2.2V31.4z M22.8,49.7h-2l2.6-8l-6.7-21.6h2.1l5.7,18.4
	l6-18.4h2.1L22.8,49.7z M47.9,41.6h-2.2v-9h-3.9l-5,9h-2.2l5.1-9.2c-2.9-0.6-4.7-2.6-4.7-5.6v-1.1c0-3.6,2.6-5.7,6.7-5.7h6.2V41.6z
	 M41.7,30.7h4v-8.9h-4c-2.8,0-4.5,1.3-4.5,3.7V27C37.1,29.4,38.9,30.7,41.7,30.7z M53.1,20.1h2.2v21.5h-2.2V20.1z M55.9,30.4
	l7.7-10.4h2.5l-7.8,10.4l8.5,11.2h-2.5L55.9,30.4z M68.3,20.1h14.6v1.8h-6.3v19.7h-2.2V21.9h-6.2V20.1z M93.1,41.9
	c-4.1,0-6.9-2.5-6.9-6.2V26c0-3.7,2.8-6.2,6.9-6.2c4,0,6.9,2.5,6.9,6.2v9.7C100,39.4,97.1,41.9,93.1,41.9z M97.8,25.8
	c0-2.5-1.9-4.2-4.7-4.2c-2.8,0-4.8,1.7-4.8,4.2v10.1c0,2.5,1.9,4.2,4.8,4.2c2.8,0,4.7-1.7,4.7-4.2V25.8z M104.7,35.7V20.9
	c0-4.1,2-6.9,5.7-7.3l7.1-0.8l0.2,1.9l-6.9,0.9c-2.6,0.3-4.1,2.2-4.1,5.4v1.9c1.1-1.7,3-2.6,5.5-2.6c3.6,0,6.1,2.3,6.1,5.8v9.7
	c0,3.7-2.9,6.2-6.9,6.2S104.7,39.4,104.7,35.7z M116.3,35.9V26c0-2.3-1.9-3.9-4.6-3.9c-2.8,0-4.8,1.6-4.9,3.9v9.9
	c0,2.5,1.9,4.2,4.8,4.2C114.3,40,116.3,38.3,116.3,35.9z M123.4,13.6h2.2v3h-2.2V13.6z M123.4,20.1h2.2v21.5h-2.2V20.1z M142.1,25.8
	c0-2.5-1.9-4.2-4.7-4.2c-2.8,0-4.8,1.7-4.8,4.2v10.1c0,2.5,1.9,4.2,4.8,4.2c2.8,0,4.7-1.7,4.7-4.2v-1.5h2.2v1.3
	c0,3.7-2.8,6.2-6.9,6.2c-4.1,0-6.9-2.5-6.9-6.2V26c0-3.7,2.8-6.2,6.9-6.2c4,0,6.9,2.5,6.9,6.2v1.3h-2.2V25.8z M148.9,20.1h2.2v21.5
	h-2.2V20.1z M151.6,30.4l7.7-10.4h2.5L154,30.4l8.5,11.2H160L151.6,30.4z M165.3,27.1V26c0-3.7,2.8-6.2,6.7-6.2
	c3.9,0,6.6,2.5,6.6,6.2v15.6h-2.2v-2.3c-1.2,1.5-3.1,2.6-5.6,2.6c-3.5,0-5.8-2.1-5.8-5.4v-1.4c0-3.3,2.8-5.2,6.7-5.5l4.7-0.3v-3.6
	c0-2.5-1.9-4.2-4.4-4.2c-2.6,0-4.5,1.7-4.5,4.2v1.3H165.3z M176.4,31.2l-4.6,0.3c-3,0.2-4.6,1.5-4.6,3.5v1.5c0,2.1,1.7,3.5,4.3,3.5
	c2.8,0,4.9-1.7,4.9-4.1V31.2z M196.1,25.1v1c0,2-1.1,3.6-2.8,4.4c2.2,0.7,3.5,2.5,3.5,4.8v1.1c0,3.2-3,5.5-6.9,5.5
	c-4.2,0-6.9-2.5-6.9-6v-1h2.2v1c0,2.5,1.9,4.2,4.8,4.2c2.7,0,4.8-1.5,4.8-3.8v-1.1c0-2.2-1.7-3.7-4.2-3.7h-2.7v-1.8h1.9
	c2.4,0,4.2-1.4,4.2-3.5v-1c0-2.2-1.7-3.6-4.2-3.6c-2.6,0-4.6,1.7-4.6,4.2v1H183v-1c0-3.5,2.9-6,6.8-6
	C193.6,19.8,196.1,21.9,196.1,25.1z M200.8,27.1V26c0-3.7,2.8-6.2,6.7-6.2c3.9,0,6.6,2.5,6.6,6.2v15.6h-2.2v-2.3
	c-1.2,1.5-3.1,2.6-5.6,2.6c-3.5,0-5.8-2.1-5.8-5.4v-1.4c0-3.3,2.8-5.2,6.7-5.5l4.7-0.3v-3.6c0-2.5-1.9-4.2-4.4-4.2
	c-2.6,0-4.5,1.7-4.5,4.2v1.3H200.8z M211.9,31.2l-4.6,0.3c-3,0.2-4.6,1.5-4.6,3.5v1.5c0,2.1,1.7,3.5,4.3,3.5c2.8,0,4.9-1.7,4.9-4.1
	V31.2z M217.7,20.1h14.6v1.8h-6.3v19.7h-2.2V21.9h-6.2V20.1z M247.8,24.1l-10.1,17.5H236V20.1h2.2v17.5l10.1-17.5h1.8v21.5h-2.2
	V24.1z M250,0H0v15.5h2.2V2.2h245.7v13.4h2.2V0z M250,46.1h-2.2v12.6H2.2V46.1H0v14.7h250V46.1z"/>
</svg>
