<?xml version="1.0" encoding="utf-8"?>
<!-- Generator: Adobe Illustrator 21.0.0, SVG Export Plug-In . SVG Version: 6.00 Build 0)  -->
<svg version="1.1" id="Layer_1" xmlns="http://www.w3.org/2000/svg" xmlns:xlink="http://www.w3.org/1999/xlink" x="0px" y="0px"
	 viewBox="0 0 1132 556" style="enable-background:new 0 0 1132 556;" xml:space="preserve">
<style type="text/css">
	.st0{fill-rule:evenodd;clip-rule:evenodd;fill:#231F20;}
	.st1{fill:#231F20;}
</style>
<g>
	<g>
		<defs>
			<path id="SVGID_1_" d="M359.7,398.6c-18.1,15.8-40.1,27.9-65.1,34.5c-13.4,3.6-26.8,5.3-40,5.5c13.3-0.1,26.9-1.8,40.4-5.4
				c25.1-6.7,47.3-18.9,65.4-34.9c7.9-7,14.9-14.6,21.2-22.9C375.1,383.7,367.8,391.5,359.7,398.6 M381.5,375.3
				c0.2-0.3,0.5-0.6,0.7-0.9C382,374.7,381.8,375,381.5,375.3 M382.2,374.4c0,0,0.1-0.1,0.1-0.1
				C382.3,374.3,382.3,374.3,382.2,374.4 M382.3,374.2c0.1-0.1,0.1-0.1,0.2-0.2C382.4,374.1,382.4,374.2,382.3,374.2 M253,119.4
				c-13.8,0-27.9,1.8-41.9,5.5C125,147.7,73.9,235.2,97,320.3c19.5,71.9,85.6,119.1,157.6,118.3c-71.1,0.5-136.4-46.2-155.7-117.3
				C76,236.8,126.7,150,212.1,127.4c85.4-22.6,173.2,27.5,196.1,111.9c13.1,48.3,2.1,97.3-25.7,134.7
				c28.3-37.8,39.6-87.5,26.3-136.4C389.4,166.4,324.3,119.4,253,119.4C253,119.4,253,119.4,253,119.4"/>
		</defs>
		<use xlink:href="#SVGID_1_"  style="overflow:visible;fill:#231F20;"/>
		<clipPath id="SVGID_2_">
			<use xlink:href="#SVGID_1_"  style="overflow:visible;"/>
		</clipPath>
	</g>
	<g>
		<defs>
			<path id="SVGID_3_" d="M418.8,235.3c12.8,47.3,3.9,95.3-20.6,133.7c25-38.3,34.1-86.4,21.2-133.9c-13.2-48.9-47.2-87-90-107.3
				C372,148.5,405.6,186.5,418.8,235.3 M254.3,110.4c-14.6,0-29.5,1.9-44.2,5.8C119.2,140.3,65.2,232.7,89.5,322.6
				c24.4,89.9,117.8,143.3,208.8,119.2c26.3-7,49.6-19.7,68.7-36.4c12.1-10.6,22.6-22.8,31.2-36.3c-8.1,12.5-17.9,23.9-29.2,33.9
				c-19.2,17-42.5,29.9-69.1,36.9c-90.2,23.9-182.9-29-207.1-118.2c-24.2-89.2,29.4-180.9,119.5-204.7
				c40.7-10.8,81.9-5.9,117.1,10.9C306.5,116.6,280.8,110.4,254.3,110.4L254.3,110.4"/>
		</defs>
		<use xlink:href="#SVGID_3_"  style="overflow:visible;fill:#231F20;"/>
		<clipPath id="SVGID_4_">
			<use xlink:href="#SVGID_3_"  style="overflow:visible;"/>
		</clipPath>
	</g>
	<g>
		<defs>
			<path id="SVGID_5_" d="M94.7,276.4c0,82.1,67.3,148.7,150.4,148.7c38.8,0,74.2-14.6,100.9-38.4c-23.2,18.8-52.9,30.1-85.3,30.1
				c-74.5,0-134.8-59.7-134.8-133.3c0-73.6,60.4-133.3,134.8-133.3c52.6,0,98.1,29.7,120.3,73.1c8.8,17.2,14,36.5,14.5,57
				c-1.1,42.2-19.9,80-49.5,106.4c30.2-24.4,49.5-61.6,49.5-103.2c0-1.1,0-2.2,0-3.2c0-1.3,0-2.6,0-3.8c0-23.8-5.6-46.3-15.7-66.2
				c-24.6-48.9-75.7-82.5-134.7-82.5C162,127.7,94.7,194.3,94.7,276.4"/>
		</defs>
		<use xlink:href="#SVGID_5_"  style="overflow:visible;fill:#231F20;"/>
		<clipPath id="SVGID_6_">
			<use xlink:href="#SVGID_5_"  style="overflow:visible;"/>
		</clipPath>
	</g>
	<g>
		<defs>
			<path id="SVGID_7_" d="M395.5,276.3c0-0.1,0-0.1,0-0.2c0-4.3-0.2-8.5-0.6-12.7C395.3,267.6,395.5,271.9,395.5,276.3 M94.7,276.4
				c0,82.1,67.3,148.7,150.4,148.7c83.1,0,150.4-66.6,150.4-148.7c0,0,0-0.1,0-0.1c-0.1,77.6-63.7,140.5-142.3,140.5
				c-78.6,0-142.3-63-142.3-140.7c0-77.7,63.7-140.7,142.3-140.7c55.5,0,103.5,31.4,127,77.1c8,15.5,13.1,32.7,14.7,50.8
				c-1.7-19-6.9-36.9-15.1-53.1c-24.6-48.9-75.7-82.5-134.7-82.5C162,127.7,94.7,194.3,94.7,276.4"/>
		</defs>
		<use xlink:href="#SVGID_7_"  style="overflow:visible;fill:#231F20;"/>
		<clipPath id="SVGID_8_">
			<use xlink:href="#SVGID_7_"  style="overflow:visible;"/>
		</clipPath>
	</g>
	<g>
		<defs>
			<path id="SVGID_9_" d="M404.3,270.7c0-0.5-0.1-1-0.1-1.5C404.2,269.7,404.3,270.2,404.3,270.7 M404.2,269.2
				c0-0.5-0.1-0.9-0.1-1.4C404.1,268.3,404.2,268.8,404.2,269.2 M404.1,267.8c0-0.2,0-0.3,0-0.5
				C404.1,267.5,404.1,267.6,404.1,267.8 M401.6,250.8c1.1,5.4,1.9,11,2.4,16.5c-0.5-5.9-1.3-11.7-2.5-17.4c-0.7-3-1.4-6.1-2.3-9
				C400.1,244.1,400.9,247.4,401.6,250.8 M399.2,240.9L399.2,240.9L399.2,240.9 M399.2,240.8c-0.1-0.4-0.2-0.7-0.3-1.1
				C399,240.1,399.1,240.4,399.2,240.8 M398.9,239.7c-0.1-0.3-0.2-0.7-0.3-1.1C398.7,239,398.8,239.4,398.9,239.7 M254.1,131.5
				c-66.4,0-127.2,43.8-145.2,110.3C87.4,321.1,135,402.6,215.3,423.9C295.5,445.1,378,398,399.5,318.7c4.4-16.1,5.9-32.3,4.8-48
				c0.9,15-0.6,30.4-4.7,45.6c-20.7,76.4-100.1,121.7-177.4,101.2c-77.3-20.4-123.1-99-102.4-175.4
				c20.7-76.4,100.1-121.7,177.4-101.3c50.5,13.4,87.5,51.6,101.4,97.7c-14.3-48.2-52.8-88.1-105.5-102
				C280.1,133.2,267,131.5,254.1,131.5C254.1,131.5,254.1,131.5,254.1,131.5"/>
		</defs>
		<use xlink:href="#SVGID_9_"  style="overflow:visible;fill:#231F20;"/>
		<clipPath id="SVGID_10_">
			<use xlink:href="#SVGID_9_"  style="overflow:visible;"/>
		</clipPath>
	</g>
	<g>
		<defs>
			<path id="SVGID_11_" d="M341.7,378.4c-15,13.2-33.4,23.2-54.1,28.7c-11.1,2.9-22.3,4.4-33.3,4.6c11.1-0.1,22.4-1.6,33.6-4.5
				c20.9-5.5,39.3-15.7,54.4-29.1c6.5-5.8,12.4-12.2,17.6-19C354.5,366.1,348.4,372.5,341.7,378.4 M359.8,359
				c0.1-0.2,0.2-0.3,0.4-0.4C360.1,358.7,359.9,358.9,359.8,359 M360.2,358.6c0.1-0.1,0.2-0.2,0.3-0.4
				C360.4,358.4,360.3,358.5,360.2,358.6 M360.5,358.3c0-0.1,0.1-0.1,0.1-0.2C360.5,358.1,360.5,358.2,360.5,358.3 M253,146.3
				c-11.5,0-23.2,1.4-34.8,4.5c-71.6,19-114,91.7-94.9,162.5c16.2,59.8,71.2,99,131,98.3c-59.1,0.4-113.4-38.5-129.4-97.6
				c-19-70.2,23.1-142.3,94.1-161.1c71-18.8,144,22.8,163,93c10.9,40.2,1.7,81-21.4,112.1c23.6-31.4,32.9-72.7,21.9-113.4
				C366.4,185.4,312.2,146.3,253,146.3L253,146.3"/>
		</defs>
		<use xlink:href="#SVGID_11_"  style="overflow:visible;fill:#231F20;"/>
		<clipPath id="SVGID_12_">
			<use xlink:href="#SVGID_11_"  style="overflow:visible;"/>
		</clipPath>
	</g>
	<g>
		<defs>
			<path id="SVGID_13_" d="M373.2,305.2c-2.2,9.9-5.6,19.6-10.4,28.9c4.9-9.6,8.4-19.6,10.6-29.8c2.5-11.8,3.2-23.9,2.1-35.8
				C376.6,280.7,375.9,293.1,373.2,305.2 M375.5,268.5c0-0.3,0-0.5-0.1-0.8C375.5,268,375.5,268.3,375.5,268.5 M375.5,267.7
				c0-0.1,0-0.3-0.1-0.4C375.4,267.5,375.4,267.6,375.5,267.7 M156.1,203c-42.6,52.6-34,129.4,19.2,171.6
				c53.3,42.2,130.9,33.7,173.6-19c5.5-6.8,10.1-14,14-21.5c-3.7,7.2-8.3,14.2-13.6,20.8c-42.1,52-118.8,60.4-171.4,18.7
				c-52.6-41.6-61.1-117.5-19-169.5c42.1-52,118.9-60.3,171.4-18.7c26.6,21,41.9,50.8,45.1,81.9c-3.2-31.6-18.6-62-45.7-83.4
				c-22.8-18-50-26.8-77.1-26.8C216.4,157.2,180.6,172.9,156.1,203"/>
		</defs>
		<use xlink:href="#SVGID_13_"  style="overflow:visible;fill:#231F20;"/>
		<clipPath id="SVGID_14_">
			<use xlink:href="#SVGID_13_"  style="overflow:visible;"/>
		</clipPath>
	</g>
	<g>
		<defs>
			<path id="SVGID_15_" d="M370,304.3c-2.1,9.7-5.5,19.2-10.1,28.3c4.8-9.4,8.2-19.1,10.3-29.1c2.4-11.5,3.1-23.2,2-34.8
				C373.4,280.4,372.6,292.5,370,304.3 M372.3,268.6c0-0.3,0-0.5,0-0.8C372.3,268,372.3,268.3,372.3,268.6 M372.2,267.7
				C372.2,267.7,372.2,267.7,372.2,267.7C372.2,267.7,372.2,267.7,372.2,267.7 M372.2,267.7c0-0.1,0-0.2,0-0.3
				C372.2,267.5,372.2,267.6,372.2,267.7 M252.3,159.8c-35.3,0-70.4,15.3-94.2,44.7c-41.6,51.4-33.2,126.4,18.7,167.6
				c52,41.2,127.8,32.8,169.4-18.5c5.4-6.6,9.9-13.7,13.6-20.9c-3.6,7-8.1,13.9-13.3,20.3c-41.1,50.8-116.1,58.9-167.4,18.3
				c-51.3-40.6-59.6-114.8-18.5-165.5c41.1-50.7,116-58.9,167.4-18.3c26,20.6,40.9,49.7,44,80c-3.1-30.9-18.2-60.6-44.6-81.4
				C305.4,168.3,278.7,159.8,252.3,159.8L252.3,159.8"/>
		</defs>
		<use xlink:href="#SVGID_15_"  style="overflow:visible;fill:#231F20;"/>
		<clipPath id="SVGID_16_">
			<use xlink:href="#SVGID_15_"  style="overflow:visible;"/>
		</clipPath>
	</g>
	<g>
		<defs>
			<path id="SVGID_17_" d="M357.2,251.9c7.9,29.1,2.4,58.5-12.7,82.1c15.3-23.5,21-53.1,13.1-82.2c-8-29.4-28.1-52.3-53.6-65
				C329.3,199.6,349.2,222.5,357.2,251.9 M228.8,178.7c-55.9,14.8-89.1,71.5-74.1,126.7c15,55.2,72.4,88,128.3,73.2
				c16.2-4.3,30.5-12.1,42.3-22.4c7.5-6.5,13.9-14,19.2-22.3c-5,7.7-11,14.7-18,20.9c-11.8,10.4-26.2,18.3-42.5,22.6
				c-55.5,14.7-112.5-17.8-127.3-72.6c-14.9-54.8,18.1-111.1,73.5-125.7c25.7-6.8,51.7-3.5,73.7,7.5c-14.6-7.5-31-11.5-48-11.5
				C247,175.2,237.9,176.3,228.8,178.7"/>
		</defs>
		<use xlink:href="#SVGID_17_"  style="overflow:visible;fill:#231F20;"/>
		<clipPath id="SVGID_18_">
			<use xlink:href="#SVGID_17_"  style="overflow:visible;"/>
		</clipPath>
	</g>
	<g>
		<defs>
			<path id="SVGID_19_" d="M334.9,211.4c-10.6-12.3-24.2-21.8-39.3-27.6C310.7,189.8,324.2,199.2,334.9,211.4 M230.6,179.9
				c-54.9,14.5-87.4,70.2-72.7,124.4c14.7,54.2,71.1,86.3,126,71.8c15.9-4.2,29.9-11.9,41.5-22c28.3-24.7,41.7-64,31.3-102.4
				c-4.2-15.4-11.8-29-21.7-40.3c9.3,10.7,16.3,23.6,20.3,38.1c10,36.8-2.7,74.3-29.5,98.1c-11.2,9.9-24.8,17.5-40.4,21.6
				c-52.7,13.9-106.9-17-121.1-69.1c-14.1-52.1,17.2-105.7,69.9-119.7c21.2-5.6,42.6-4,61.5,3.4c-12-4.8-25-7.4-38.3-7.4
				C248.5,176.4,239.5,177.6,230.6,179.9"/>
		</defs>
		<use xlink:href="#SVGID_19_"  style="overflow:visible;fill:#231F20;"/>
		<clipPath id="SVGID_20_">
			<use xlink:href="#SVGID_19_"  style="overflow:visible;"/>
		</clipPath>
	</g>
	<g>
		<defs>
			<path id="SVGID_21_" d="M418.7,233.6c15.3,56.6,0.2,114.1-35.5,155.6c36.1-41.1,51.5-98.5,36.2-155
				c-6.1-22.7-16.7-43.1-30.4-60.5C402.4,191.1,412.6,211.3,418.7,233.6 M251.3,106.5c-14.9,0-30,1.9-45,5.9
				C113.7,136.9,58.7,231,83.6,322.4c24.8,91.5,119.9,145.7,212.5,121.2c26.8-7.1,50.5-20,69.9-37c6.2-5.4,11.9-11.2,17.2-17.4
				c-4.6,5.3-9.7,10.4-15,15.1c-19.4,17.2-43.1,30.3-70,37.4C206.7,466,112.7,412.3,88.2,322C63.7,231.6,118,138.6,209.4,114.4
				c68.5-18.1,138.4,7.4,179.5,59.3C356.4,131.8,305.4,106.5,251.3,106.5C251.2,106.5,251.3,106.5,251.3,106.5"/>
		</defs>
		<use xlink:href="#SVGID_21_"  style="overflow:visible;fill:#231F20;"/>
		<clipPath id="SVGID_22_">
			<use xlink:href="#SVGID_21_"  style="overflow:visible;"/>
		</clipPath>
	</g>
	<g>
		<defs>
			<path id="SVGID_23_" d="M325.9,219c-9.4-10.9-21.4-19.3-34.7-24.5C304.4,199.8,316.4,208.2,325.9,219 M233.5,191.1
				c-48.6,12.9-77.4,62.2-64.4,110.3c13,48,63,76.5,111.5,63.7c14.1-3.8,26.5-10.5,36.7-19.5c25.1-21.9,36.9-56.7,27.7-90.8
				c-3.7-13.7-10.4-25.7-19.2-35.7c8.2,9.5,14.4,20.9,17.9,33.7c8.8,32.6-2.4,65.9-26.1,86.9c-9.9,8.8-22,15.5-35.8,19.1
				c-46.7,12.4-94.6-15-107.2-61.2c-12.5-46.2,15.2-93.7,61.9-106.1c18.8-5,37.7-3.5,54.5,3c-10.7-4.2-22.1-6.5-34-6.5
				C249.3,188,241.4,189,233.5,191.1"/>
		</defs>
		<use xlink:href="#SVGID_23_"  style="overflow:visible;fill:#231F20;"/>
		<clipPath id="SVGID_24_">
			<use xlink:href="#SVGID_23_"  style="overflow:visible;"/>
		</clipPath>
	</g>
	<g>
		<defs>
			<path id="SVGID_25_" d="M380.8,306.4c-4.1,19-12.7,37.3-25.8,53.4c-12.6,15.6-28.1,27.5-45.2,35.7c17.2-8,32.9-20,45.6-35.7
				c13.2-16.2,21.6-34.6,25.7-53.7c2.2-10.2,3-20.6,2.6-30.9C384.1,285.7,383.1,296.1,380.8,306.4 M150.7,198
				c-45.2,55.8-36.1,137.3,20.3,181.9c40.7,32.2,94.8,36.5,138.8,15.5c-43.3,20.2-96.3,15.8-136.2-15.8
				c-55.7-44.2-64.7-124.6-20.1-179.7c44.6-55.1,126-64,181.8-19.9c30.6,24.2,47,59.3,48.4,95.2c-1-36.7-17.8-72.7-49-97.4
				c-24.2-19.1-53-28.4-81.7-28.4C214.6,149.5,176.6,166.1,150.7,198"/>
		</defs>
		<use xlink:href="#SVGID_25_"  style="overflow:visible;fill:#231F20;"/>
		<clipPath id="SVGID_26_">
			<use xlink:href="#SVGID_25_"  style="overflow:visible;"/>
		</clipPath>
	</g>
	<g>
		<defs>
			<path id="SVGID_27_" d="M343,281c0.6-15.5-3.3-30.4-10.5-43.3C339.6,250.6,343.4,265.5,343,281 M257.3,193.7
				c-42.1,0-78.7,30.7-84.6,73c-6.5,46.3,26.3,89,73.1,95.3c13.6,1.9,26.8,0.5,39-3.6c29.8-10,52.9-35.8,57.5-68.7
				c0.4-3,0.7-5.9,0.8-8.9c-0.1,2.7-0.4,5.5-0.8,8.3c-4.5,32.1-26.9,57.3-55.8,67.2c-12.1,4.1-25.3,5.6-38.8,3.7
				c-45.9-6.2-78-48.1-71.6-93.5c6.4-45.4,48.7-77.2,94.6-70.9c27.2,3.7,49.5,19.9,61.9,41.9c-12.6-22.7-35.5-39.4-63.3-43.2
				C265.1,194,261.2,193.7,257.3,193.7C257.3,193.7,257.3,193.7,257.3,193.7"/>
		</defs>
		<use xlink:href="#SVGID_27_"  style="overflow:visible;fill:#231F20;"/>
		<clipPath id="SVGID_28_">
			<use xlink:href="#SVGID_27_"  style="overflow:visible;"/>
		</clipPath>
	</g>
	<g>
		<defs>
			<path id="SVGID_29_" d="M356.2,251.7c7.2,26.9,3.3,54.1-8.8,76.9c12.7-22.7,16.9-50.1,9.5-77.2c-7.5-27.8-25.8-49.9-49.3-63.2
				C330.7,201.8,348.7,223.9,356.2,251.7 M253.5,173.4c-9.1,0-18.3,1.2-27.5,3.6c-56.7,15.1-90.4,73-75.2,129.3
				C166,362.7,224.3,396.1,281,381c16.5-4.4,30.9-12.3,42.9-22.8c9.6-8.4,17.5-18.5,23.5-29.6c-5.7,10.1-13.1,19.4-21.9,27.2
				c-11.9,10.6-26.5,18.6-43,22.9c-56.1,14.9-113.8-18-128.9-73.5c-15-55.5,18.3-112.4,74.4-127.3c28-7.4,56.4-3,79.6,10.2
				C291.5,178.7,272.9,173.4,253.5,173.4L253.5,173.4"/>
		</defs>
		<use xlink:href="#SVGID_29_"  style="overflow:visible;fill:#231F20;"/>
		<clipPath id="SVGID_30_">
			<use xlink:href="#SVGID_29_"  style="overflow:visible;"/>
		</clipPath>
	</g>
	<g>
		<defs>
			<path id="SVGID_31_" d="M350.5,419.7c0.3-0.2,0.6-0.5,1-0.7C351.1,419.3,350.8,419.5,350.5,419.7 M351.4,419
				C351.4,419,351.5,419,351.4,419C351.5,419,351.4,419,351.4,419 M351.5,419c0,0,0.1-0.1,0.1-0.1C351.6,418.9,351.5,419,351.5,419
				 M351.6,418.9c0.5-0.4,1.1-0.8,1.6-1.2C352.7,418.1,352.1,418.5,351.6,418.9 M353.2,417.7c0.4-0.2,0.7-0.5,1.1-0.8
				C354,417.3,353.6,417.5,353.2,417.7 M398.3,369.9c-11.3,17.8-26.1,33.9-44,47.1c18.4-13.4,33.4-29.9,44.8-48.2
				c5.9-9.5,10.8-19.4,14.7-29.7C409.7,349.8,404.5,360.1,398.3,369.9 M413.8,339.1c0.2-0.5,0.4-1,0.6-1.5
				C414.2,338.1,414,338.6,413.8,339.1 M414.4,337.6c0.1-0.4,0.3-0.8,0.4-1.1C414.7,336.8,414.5,337.2,414.4,337.6 M414.8,336.5
				c0.2-0.5,0.4-1.1,0.6-1.7C415.2,335.3,415,335.9,414.8,336.5 M415.4,334.8c0.1-0.4,0.3-0.8,0.4-1.2
				C415.7,334,415.5,334.4,415.4,334.8 M415.8,333.6c0.2-0.6,0.4-1.2,0.6-1.8C416.2,332.4,416,333,415.8,333.6 M416.4,331.8
				c0.1-0.4,0.2-0.7,0.3-1.1C416.6,331,416.5,331.4,416.4,331.8 M416.8,330.7c0,0,0-0.1,0-0.1C416.8,330.7,416.8,330.7,416.8,330.7
				 M416.8,330.6C416.8,330.6,416.8,330.5,416.8,330.6C416.8,330.5,416.8,330.6,416.8,330.6 M249.6,104.5c-31.4,0-63.3,8.3-92,25.7
				c-54.1,32.7-84,89.6-84.1,147.8v1c0.1,30.7,8.4,61.8,25.9,89.8C150,450.5,258.3,476,341.1,425.8c3.2-1.9,6.3-3.9,9.3-6
				c-2.8,1.9-5.8,3.8-8.8,5.7c-82.2,49.9-189.5,24.6-239.8-56.6c-50.3-81.2-24.4-187.5,57.8-237.3c82.2-49.9,189.5-24.5,239.8,56.6
				c27.5,44.4,32.2,96.4,17.4,142.5c15-46.4,10.3-98.7-17.4-143.4C366.3,133.8,308.7,104.5,249.6,104.5L249.6,104.5"/>
		</defs>
		<use xlink:href="#SVGID_31_"  style="overflow:visible;fill:#231F20;"/>
		<clipPath id="SVGID_32_">
			<use xlink:href="#SVGID_31_"  style="overflow:visible;"/>
		</clipPath>
	</g>
	<g>
		<defs>
			<path id="SVGID_33_" d="M358.4,397c-9.9,8.6-20.9,16.1-32.9,22.1c12.3-6.1,23.6-13.7,33.5-22.6c2.4-2.1,4.8-4.3,7-6.7
				C363.6,392.3,361.1,394.7,358.4,397 M398.5,368.4c-11.3,17.8-26,33.7-43.8,46.9c18.3-13.3,33.2-29.7,44.5-47.9
				c5.9-9.4,10.8-19.4,14.7-29.7C409.9,348.3,404.7,358.6,398.5,368.4 M385.6,242c14.4,53.1-4.1,107.4-43.2,141.5
				c-8.6,7.5-18.1,14-28.5,19.3c11.3-5.5,21.5-12.5,30.6-20.6c37.8-33.6,55.7-86.5,41.6-138.3c-0.5-1.8-1-3.6-1.6-5.4
				C384.9,239.7,385.3,240.9,385.6,242 M131.9,278.6c0,63.7,52.2,115.4,116.6,115.4c64.4,0,116.7-51.7,116.7-115.5
				c0-8.6-1-17-2.8-25c1.5,7.4,2.3,15,2.3,22.8c0,62.5-51.3,113.3-114.5,113.3c-63.2,0-114.5-50.7-114.5-113.3
				c0-60.5,47.9-109.9,108.2-113.1C181.7,165.6,131.9,216.3,131.9,278.6 M250.3,163C250.3,163,250.3,163,250.3,163
				c-2.1,0-4.2,0.1-6.3,0.2c1.5-0.1,3.1-0.1,4.6-0.1c45.7,0,85.4,26,104.4,64c4.2,8.3,7.4,17.1,9.4,26.4c-2-10-5.5-19.5-10-28.4
				C333.6,188.3,295,163,250.3,163L250.3,163 M248.5,138c-12.2,0-24.5,1.6-36.9,4.8c-75.7,20.1-120.7,97-100.4,171.9
				c20.3,74.8,98.2,119.3,173.9,99.2c10.2-2.7,19.8-6.4,28.8-11c-8.3,4.1-17,7.4-26.3,9.8c-74.4,19.7-150.8-23.9-170.7-97.4
				c-19.9-73.5,24.2-149,98.5-168.7c72.5-19.2,147,21.8,169.1,92C366.5,177.8,310.1,138,248.5,138L248.5,138 M254.3,124.5
				c-13.5,0-27.2,1.7-40.9,5.3c-84,22.3-133.9,107.6-111.4,190.7c22.5,83,108.9,132.3,192.9,110.1c9.4-2.5,18.5-5.8,27-9.8
				c-8.2,3.8-16.9,7-26,9.4c-82.5,21.8-167.2-26.5-189.3-108.1C84.5,240.6,133.5,156.8,215.9,135c82.4-21.9,167.2,26.5,189.3,108.1
				c14.4,53.2-1.5,107.4-37.2,144.7c36.7-38,53-93.4,38.2-147.8C387.4,170.4,323.8,124.5,254.3,124.5L254.3,124.5 M159.2,130.1
				C76.8,180,50.9,286.2,101.3,367.4c50.4,81.2,158,106.5,240.3,56.6c3.2-1.9,6.2-3.9,9.2-6c-2.8,1.9-5.7,3.8-8.6,5.6
				c-81.7,49.6-188.4,24.4-238.4-56.3c-50-80.7-24.3-186.4,57.4-236c81.7-49.6,188.4-24.4,238.4,56.3c27.3,44.1,32,95.7,17.3,141.5
				c14.9-46.1,10.2-98-17.4-142.4c-32.9-53-90.2-82.2-148.9-82.2C219.4,104.5,187.8,112.7,159.2,130.1"/>
		</defs>
		<use xlink:href="#SVGID_33_"  style="overflow:visible;fill:#231F20;"/>
		<clipPath id="SVGID_34_">
			<use xlink:href="#SVGID_33_"  style="overflow:visible;"/>
		</clipPath>
	</g>
	<g>
		<defs>
			<path id="SVGID_35_" d="M345.6,382.8c-16,13.9-35.3,24.6-57.2,30.4c-21.9,5.8-44.1,6.2-64.9,2c21.5,5,44.6,4.9,67.4-1.2
				c21.8-5.8,41.1-16.4,56.9-30.4c34.5-30.6,52.4-77.3,44.6-124.6C398.9,306.2,380.4,352.4,345.6,382.8 M214.9,142.1
				c-75.8,20.1-120.7,97-100.4,171.9c14.4,53.2,57.9,91,109,101.2c-48.5-11.1-89.5-47.7-103.3-98.6c-19.9-73.5,24.2-149,98.5-168.7
				c74.3-19.7,150.7,23.9,170.7,97.4c1.3,4.6,2.2,9.1,3,13.7c-0.8-5.9-2-11.7-3.6-17.7c-17-62.7-74.4-104-137.1-104
				C239.6,137.2,227.2,138.8,214.9,142.1"/>
		</defs>
		<use xlink:href="#SVGID_35_"  style="overflow:visible;fill:#231F20;"/>
		<clipPath id="SVGID_36_">
			<use xlink:href="#SVGID_35_"  style="overflow:visible;"/>
		</clipPath>
	</g>
	<polygon class="st1" points="478.9,249.5 478.9,253.3 497.8,253.3 497.8,307.5 502,307.5 502,253.3 520.9,253.3 520.9,249.5 	"/>
	<polygon class="st1" points="532.9,249.5 532.9,307.5 564.8,307.5 564.8,303.7 536.9,303.7 536.9,278.9 563.2,278.9 563.2,275.1 
		536.9,275.1 536.9,253.2 564.8,253.2 564.8,249.5 	"/>
	<polygon class="st1" points="581.3,249.5 581.3,307.5 585.3,307.5 585.3,253.3 619.1,253.3 619.1,307.5 623.1,307.5 623.1,249.5 	
		"/>
	<path class="st1" d="M653.4,249.5c-1.5,12.1-3,22.9-4.6,32.3c-1.5,9.5-2.9,15.6-4.3,18.5c-1.3,2.8-3.1,4.3-5.4,4.3
		c-1.4,0-2.9-0.3-4.5-0.8v3.7c1.3,0.6,2.9,1,4.7,1c2,0,3.6-0.4,4.9-1.2c1.3-0.8,2.4-2,3.3-3.6c0.9-1.7,1.8-4.2,2.7-7.6
		c0.8-3.4,1.8-9.1,3.1-17.2c1.2-8,2.4-16.6,3.5-25.5H678v54.2h4.1v-58H653.4z"/>
	<polygon class="st1" points="701.9,249.5 701.9,307.5 733.9,307.5 733.9,303.7 706,303.7 706,278.9 732.3,278.9 732.3,275.1 
		706,275.1 706,253.2 733.9,253.2 733.9,249.5 	"/>
	<path class="st1" d="M826.1,249.5l-20.7,51h-0.2l-20.7-51h-6.3v58h3.9V264c0-3.5-0.1-6.8-0.3-10.1h0.3l21.8,53.5h2.6l21.8-53.5h0.3
		c-0.3,3.3-0.5,6.5-0.5,9.5v43.9h4.1v-58H826.1z"/>
	<rect x="852" y="249.5" class="st1" width="4.1" height="58"/>
	<polygon class="st1" points="922.1,249.5 922.1,253.3 941.1,253.3 941.1,307.5 945.2,307.5 945.2,253.3 964.2,253.3 964.2,249.5 	
		"/>
	<path class="st1" d="M885.9,252.3c-4.2,2.5-7.5,5.9-9.7,10.4c-2.2,4.5-3.4,9.7-3.4,15.6c0,9.4,2.3,16.8,7,22.1
		c4.7,5.3,11.2,7.9,19.4,7.9c5.8,0,10.6-0.7,14.5-2v-3.6c-4.1,1.2-8.6,1.9-13.5,1.9c-7.4,0-13-2.3-17-6.9c-4-4.6-6-11-6-19.3
		c0-8.1,2.1-14.5,6.3-19.1c4.2-4.7,10-7,17.3-7c4.7,0,9.2,1.1,13.4,3.2l1.7-3.7c-4.5-2.1-9.6-3.2-15.3-3.2
		C895,248.6,890.1,249.9,885.9,252.3"/>
	<path class="st1" d="M1018.3,256.6c-4.6-5.3-11-8-19.1-8c-8.1,0-14.5,2.6-19.2,8c-4.7,5.3-7,12.6-7,21.8c0,9.3,2.3,16.6,6.9,21.9
		c4.6,5.3,11,8,19.1,8c8.1,0,14.5-2.7,19.2-8c4.7-5.4,7-12.6,7-21.8C1025.2,269.1,1022.9,261.9,1018.3,256.6z M1015.2,297.7
		c-3.7,4.5-9.1,6.7-16.1,6.7c-7,0-12.3-2.3-16.1-6.8c-3.7-4.5-5.6-11-5.6-19.3c0-8.3,1.9-14.7,5.6-19.2c3.8-4.5,9.1-6.7,16.1-6.7
		c7,0,12.3,2.3,16,6.7c3.7,4.4,5.6,10.9,5.6,19.2C1020.8,286.8,1018.9,293.2,1015.2,297.7z"/>
	<path class="st1" d="M1025.8,220.1L1025.8,220.1L1025.8,220.1c0,1,0.4,2,1,2.7c0.6,0.6,1.3,1.1,2.1,1.3c-0.1,0.4-0.2,0.8-0.2,1.2
		c0,0,0,0,0,0.1c0,3.3,2.7,6.1,6,6.2c0,0,0,0,0,0c0,0.3,0,0.5,0,0.7c0,0.3,0,0.5,0,0.7c-3.3,0.2-6,2.9-6,6.3c0,0.4,0.1,0.8,0.2,1.3
		c-1.8,0.4-3.2,2-3.2,3.9l0,0l0,0c0,2.2,1.8,4.1,4.1,4.1c2,0,3.6-1.3,4-3.1c0.4,0.1,0.8,0.1,1.3,0.1c3.1,0,5.7-2.3,6.2-5.2
		c0-0.2,0.1-0.5,0.1-0.8c0.2,0.1,0.5,0.1,0.8,0.1c0.3,0,0.5,0,0.8-0.1c0,0.4,0.1,0.7,0.2,1c0.6,2.8,3.1,4.9,6.1,5
		c0.4,0,0.9-0.1,1.3-0.1c0.4,1.8,2,3.1,4,3.1c1.1,0,2.2-0.5,2.9-1.2l0,0c0.7-0.7,1.2-1.8,1.2-2.9c0-1.9-1.3-3.5-3.2-3.9
		c0.1-0.4,0.1-0.8,0.1-1.3c0-3.4-2.6-6.1-6-6.3c0-0.2,0-0.5,0-0.7c0-0.3,0-0.5,0-0.8c3.3-0.2,6-2.9,6-6.2c0-0.5,0-0.9-0.1-1.3
		c1.8-0.4,3.2-2,3.2-3.9c0-2.3-1.8-4.1-4.1-4.1c-1.9,0-3.5,1.3-4,3.2c-0.4-0.1-0.9-0.1-1.3-0.1c-3.4,0-6.1,2.6-6.3,5.9
		c-0.2,0-0.5,0-0.8,0c-0.3,0-0.5,0-0.8,0c-0.2-3.3-2.9-5.9-6.3-5.9c-0.4,0-0.9,0-1.3,0.1c-0.4-1.8-2-3.2-4-3.2
		C1027.6,216.1,1025.8,217.9,1025.8,220.1"/>
</g>
</svg>
