<?xml version="1.0" encoding="utf-8"?>
<!-- Generator: Adobe Illustrator 21.0.0, SVG Export Plug-In . SVG Version: 6.00 Build 0)  -->
<svg version="1.1" id="Layer_1" xmlns="http://www.w3.org/2000/svg" xmlns:xlink="http://www.w3.org/1999/xlink" x="0px" y="0px"
	 viewBox="0 0 34 34" style="enable-background:new 0 0 34 34;" xml:space="preserve">
<style type="text/css">
	.st0{fill:#CE87E9;}
</style>
<g>
	<path class="st0" d="M20.6,26.8c0-0.4,0.1-0.7,0.1-1c0-0.5,0.3-0.7,0.7-0.9c2.9-1.5,4.8-3.9,5.5-7.1c0.6-3.1-0.1-6-2.1-8.4
		c-1.6-1.9-3.7-3.1-6.2-3.5c-3-0.5-5.8,0.3-8.1,2.3C8.6,9.7,7.4,11.8,7,14.3c-0.5,3.1,0.3,5.8,2.4,8.2c1,1.1,2.1,2,3.5,2.6
		c0.4,0.2,0.3,0.5,0.4,0.7c0,0.2,0.1,0.5,0.1,0.7s-0.1,0.3-0.3,0.2c-1.2-0.4-2.2-1-3.2-1.8c-2.1-1.7-3.5-3.9-4.1-6.6
		c-0.3-1.3-0.4-2.6-0.2-4c0.3-2.1,1-3.9,2.3-5.5c1.7-2.2,3.9-3.6,6.5-4.2c1.3-0.3,2.5-0.4,3.8-0.3c2.2,0.3,4.2,1.1,6,2.5
		c2.1,1.7,3.5,3.9,4.1,6.5c0.7,3.4,0.1,6.5-2,9.4c-1.4,1.9-3.2,3.2-5.4,4C20.8,26.7,20.8,26.8,20.6,26.8z"/>
	<path class="st0" d="M14.2,21.4c0-0.3,0-0.6,0-0.9c0.1-0.6,0.4-1,0.8-1.3c1.1-0.7,3-0.7,4.1,0.1c0.4,0.3,0.7,0.8,0.7,1.3
		c0.1,1.3-0.1,2.6-0.2,3.8c-0.2,1.2-0.3,2.3-0.5,3.5c-0.1,0.7-0.4,1.3-1.2,1.6c-0.8,0.3-1.6,0.2-2.4-0.3c-0.4-0.3-0.5-0.7-0.6-1.1
		c-0.2-1.1-0.4-2.3-0.5-3.5C14.3,23.6,14.2,22.5,14.2,21.4C14.1,21.4,14.2,21.4,14.2,21.4z"/>
	<path class="st0" d="M24.7,15.7c-0.1,2.8-1.1,4.9-3.2,6.4c-0.1,0.1-0.2,0.1-0.3,0.1c0-0.1-0.1-0.2-0.1-0.3c0-0.4,0-0.7,0-1.1
		c0-0.2,0.1-0.3,0.2-0.4c1-1,1.6-2.2,1.8-3.5c0.3-1.9-0.2-3.5-1.4-5c-1-1.3-2.4-2-4-2.2c-2.1-0.3-3.9,0.3-5.4,1.8
		c-1.2,1.2-1.8,2.7-1.8,4.5c0,1.7,0.7,3.1,1.8,4.4c0.2,0.2,0.3,0.4,0.3,0.7c0,0.3,0,0.7,0,1c0,0.1,0,0.2-0.1,0.3
		c-0.1,0-0.2,0-0.2-0.1c-1.7-1.2-2.7-2.8-3.1-4.8C9,15,9.5,12.9,11,11c1.2-1.4,2.7-2.4,4.5-2.7c2.3-0.4,4.4,0.1,6.3,1.5
		c1.5,1.2,2.4,2.7,2.8,4.5C24.7,14.8,24.7,15.3,24.7,15.7z"/>
	<path class="st0" d="M17,12.2c1.3,0,2.7,1,2.7,2.7c0,1.6-1.2,2.7-2.7,2.7c-1.4,0-2.7-1.1-2.7-2.7S15.7,12.2,17,12.2z"/>
</g>
</svg>
