<?xml version="1.0" encoding="utf-8"?>
<!-- Generator: Adobe Illustrator 21.0.0, SVG Export Plug-In . SVG Version: 6.00 Build 0)  -->
<svg version="1.1" id="Layer_1" xmlns="http://www.w3.org/2000/svg" xmlns:xlink="http://www.w3.org/1999/xlink" x="0px" y="0px"
	 viewBox="0 0 34 34" style="enable-background:new 0 0 34 34;" xml:space="preserve">
<style type="text/css">
	.st0{fill:#FFFFFF;}
</style>
<path class="st0" d="M19.7,15.1c-2,0-3.9,0-5.9,0c-0.6,0-1.1,0-1.7,0c-0.1,0-0.3,0.1-0.3,0.2c0,1.1,0,2.3,0,3.5c1.6,0,3.2,0,4.8,0
	c0,0.2-0.1,0.4-0.2,0.6c-0.7,2.2-3,3.3-5.4,2.9C8,21.8,6.2,19,6.7,16c0.1-0.4,0.2-0.8,0.4-1.2c1-2.2,3.5-3.5,5.9-3
	c0.9,0.2,1.6,0.6,2.3,1.2c0.9-0.9,1.7-1.7,2.6-2.6c-0.1,0-0.2-0.1-0.2-0.2c-2.1-1.8-4.6-2.5-7.3-2c-4,0.6-6.8,3.7-7.4,7.3
	c-0.3,1.5-0.2,3.2,0.4,4.8c1.5,3.8,5.4,6.2,9.5,5.7c2-0.2,3.8-0.9,5.2-2.4c2.1-2.2,2.6-4.9,2.3-7.8C20.4,15.2,20.2,15.1,19.7,15.1
	L19.7,15.1z M28.7,15.4c-0.2,0-0.4,0-0.6,0v-0.1c0-0.2,0-0.3,0-0.4c0-0.8,0-1.5,0-2.3c0-0.1-0.1-0.3-0.2-0.3c-0.7,0-1.4,0-2.1,0
	c0,0.9,0,1.8,0,2.6c0,0.2,0,0.3,0,0.5c-1.1,0-2.1,0-3.2,0c0,0.3,0,0.4,0,0.6c0,0.6,0,1.1,0.1,1.7c0.5,0,1.1,0.1,1.7,0.1
	c0.5,0,0.9,0,1.4,0c0,1.1,0,2.1,0,3.1c0.8,0,1.5,0,2.3,0c0-1,0-2,0-3.1c1.1,0,2.1,0,3.1,0c0-0.6,0-1.2,0-1.8c0-0.2,0-0.4,0-0.5
	C30.4,15.4,29.5,15.4,28.7,15.4L28.7,15.4z"/>
</svg>
