<?xml version="1.0" encoding="utf-8"?>
<!-- Generator: Adobe Illustrator 21.0.0, SVG Export Plug-In . SVG Version: 6.00 Build 0)  -->
<svg version="1.1" id="Layer_1" xmlns="http://www.w3.org/2000/svg" xmlns:xlink="http://www.w3.org/1999/xlink" x="0px" y="0px"
	 viewBox="0 0 34 34" style="enable-background:new 0 0 34 34;" xml:space="preserve">
<style type="text/css">
	.st0{fill:#FFFFFF;}
</style>
<path class="st0" d="M10.5,17c0-3.6,2.9-6.5,6.5-6.5s6.5,2.9,6.5,6.5s-2.9,6.5-6.5,6.5S10.5,20.6,10.5,17L10.5,17z M23.7,4.3H10.3
	c-3.3,0-6,2.7-6,6v13.5c0,3.3,2.7,6,6,6h13.5c3.3,0,6-2.7,6-6V10.3C29.8,7,27.1,4.3,23.7,4.3L23.7,4.3z M10.3,5.8h13.5
	c2.5,0,4.5,2,4.5,4.5v13.5c0,2.5-2,4.5-4.5,4.5H10.3c-2.5,0-4.5-2-4.5-4.5V10.3C5.8,7.8,7.8,5.8,10.3,5.8L10.3,5.8z M25.1,7.7
	c-0.7,0-1.3,0.6-1.3,1.3s0.6,1.3,1.3,1.3c0.7,0,1.3-0.6,1.3-1.3S25.8,7.7,25.1,7.7L25.1,7.7z M25.2,17c0-4.5-3.7-8.2-8.2-8.2
	S8.8,12.5,8.8,17c0,4.6,3.7,8.2,8.2,8.2C21.6,25.2,25.2,21.6,25.2,17L25.2,17z"/>
</svg>
