<?xml version="1.0" encoding="utf-8"?>
<!-- Generator: Adobe Illustrator 21.0.0, SVG Export Plug-In . SVG Version: 6.00 Build 0)  -->
<svg version="1.1" id="Layer_1" xmlns="http://www.w3.org/2000/svg" xmlns:xlink="http://www.w3.org/1999/xlink" x="0px" y="0px"
	 viewBox="0 0 34 34" style="enable-background:new 0 0 34 34;" xml:space="preserve">
<style type="text/css">
	.st0{fill:#FFFFFF;}
</style>
<path class="st0" d="M28.7,25.4c-0.2,0-0.4-0.1-0.5-0.2c-0.4-0.3-0.5-0.9-0.3-1.3c0.9-1.3,1.3-2.8,1.3-4.4s-0.5-3.1-1.3-4.4
	c-0.3-0.4-0.2-1,0.3-1.3c0.4-0.3,1-0.2,1.3,0.3c1.1,1.6,1.6,3.5,1.6,5.4c0,2-0.6,3.8-1.6,5.4C29.4,25.2,29.1,25.4,28.7,25.4
	L28.7,25.4z M26.1,23.8c0.3,0,0.6-0.1,0.8-0.4c0.8-1.2,1.2-2.5,1.2-3.9s-0.4-2.8-1.2-3.9c-0.3-0.4-0.9-0.5-1.3-0.3
	c-0.4,0.3-0.5,0.9-0.3,1.3c0.6,0.8,0.9,1.8,0.9,2.9c0,1-0.3,2-0.9,2.9c-0.3,0.4-0.2,1,0.3,1.3C25.7,23.8,25.9,23.8,26.1,23.8
	L26.1,23.8z M25,19.5c0,2.3-1.9,4.2-4.2,4.2H7.9c-2.8,0-5-2.3-5-5c0-2.5,1.9-4.6,4.3-5c1-3,3.9-5.1,7.1-5.1c3.9,0,7.1,3,7.4,6.7
	C23.5,15.8,25,17.5,25,19.5z M23.1,19.5c0-1-0.6-1.8-1.5-2.2c-0.1,0.4-0.2,0.8-0.3,1.1c-0.1,0.4-0.5,0.6-0.9,0.6c-0.1,0-0.2,0-0.3,0
	c-0.5-0.2-0.8-0.7-0.6-1.2c0.2-0.6,0.3-1.1,0.3-1.7c0-3.1-2.5-5.6-5.6-5.6c-2.2,0-4.2,1.3-5.1,3.3c0.9,0.2,1.7,0.7,2.3,1.3
	c0.4,0.4,0.4,1,0,1.3c-0.4,0.4-1,0.4-1.3,0c-0.6-0.6-1.4-0.9-2.2-0.9c-1.7,0-3.1,1.4-3.1,3.1s1.4,3.1,3.1,3.1h12.9
	C22,21.8,23.1,20.8,23.1,19.5z"/>
</svg>
