<?xml version="1.0" encoding="utf-8"?>
<!-- Generator: Adobe Illustrator 21.0.0, SVG Export Plug-In . SVG Version: 6.00 Build 0)  -->
<svg version="1.1" id="Layer_1" xmlns="http://www.w3.org/2000/svg" xmlns:xlink="http://www.w3.org/1999/xlink" x="0px" y="0px"
	 viewBox="0 0 34 34" style="enable-background:new 0 0 34 34;" xml:space="preserve">
<style type="text/css">
	.st0{fill:#FFFFFF;}
</style>
<path class="st0" d="M17.1,6.3h0.2c0.4,0,0.8,0.2,1.1,0.5C18.8,7.1,19,7.5,19.1,8c0.1,0.8-0.1,1.3-0.6,1.9c-0.3,0.3-0.7,0.5-1.2,0.6
	c-0.1,0-0.2,0-0.2,0c-1,0-1.8-0.7-2-1.6c-0.2-0.7,0-1.3,0.5-1.9c0.3-0.4,0.7-0.6,1.2-0.7h0.1L17.1,6.3L17.1,6.3 M26.9,15.8v0.8
	c0,0.1,0,0.1,0,0.2c0,0.5-0.1,0.9-0.2,1.2c-0.2,0.5-0.5,0.8-1,0.9c-0.3,0.1-0.6,0.2-1,0.2c-0.1,0-0.2,0-0.3,0c-0.2,0-0.3,0-0.5,0
	l0,0c0-0.3,0-0.6,0-0.9s0-0.7,0.1-1.1c0.1-0.2,0.1-0.4,0.2-0.6c0.2-0.3,0.4-0.4,0.7-0.6c0.3-0.1,0.7-0.2,1.2-0.2L26.9,15.8
	 M8.9,15.9c2.2,0,4.4,0,6.6,0h0.1h0.1c0.4,0.1,0.8,0.2,1.1,0.3c0.4,0.2,0.8,0.4,1,0.7c0.3,0.3,0.5,0.7,0.6,1.2
	c0.1,0.3,0.1,0.5,0.1,0.8V19c-1.4,0-3.4,0-5.2,0h-4c-0.1,0-0.3,0-0.5-0.1c-0.3-0.1-0.6-0.2-0.8-0.3c-0.5-0.2-0.7-0.5-0.9-1
	C7,17.3,6.9,17,6.9,16.7l0,0l0,0c0-0.3,0-0.5,0-0.8l0,0L8.9,15.9 M19.1,24.8V26c0,0.4,0,0.7-0.1,0.9c0,0.2-0.1,0.3-0.2,0.4
	s-0.2,0.2-0.4,0.3c-0.2,0.1-0.4,0.1-0.7,0.1h-0.3l0,0h-2.3v-3h4 M17.2,4.3c-0.1,0-0.2,0-0.3,0h-0.1c-0.1,0-0.3,0-0.4,0.1
	c-0.9,0.2-1.7,0.6-2.3,1.3c-0.9,1-1.2,2.3-0.9,3.6c0.4,1.8,2,3.2,4,3.2c0.1,0,0.3,0,0.5,0c0.9-0.1,1.7-0.5,2.4-1.1
	c1-1,1.4-2.2,1.2-3.6c-0.1-1-0.6-1.8-1.4-2.5c-0.6-0.6-1.4-0.9-2.2-1C17.4,4.3,17.3,4.3,17.2,4.3L17.2,4.3z M27.3,13.8
	c-0.4,0-0.8,0-1.2,0c-0.7,0-1.3,0.1-1.9,0.3c-0.8,0.3-1.3,0.8-1.7,1.5c-0.2,0.4-0.3,0.7-0.4,1.1c-0.1,0.5-0.2,1.1-0.2,1.6
	c0,0.9,0,1.8,0,2.7v0.1c0.1,0,0.1,0,0.2,0c0.4,0,0.9,0,1.3,0c0.3,0,0.7,0,1,0c0.2,0,0.4,0,0.6,0c0.5-0.1,1-0.2,1.5-0.3
	c1-0.4,1.7-1.1,2.1-2.1c0.2-0.6,0.3-1.2,0.4-1.9v-0.1c0-1,0-2,0-2.9l0,0C28.4,13.8,27.8,13.8,27.3,13.8L27.3,13.8z M8.9,13.9
	c-1.2,0-2.4,0-3.6,0H5.2V14c0,0.6,0,1.3-0.1,1.9c0,0.3,0,0.5,0,0.8c0,0.1,0,0.1,0,0.2l0,0V17c0.1,0.5,0.1,1,0.3,1.4
	c0.4,1,1,1.7,1.9,2.2c0.4,0.2,0.9,0.3,1.3,0.4c0.3,0.1,0.6,0.1,0.9,0.1l0,0c2.2,0,11.1,0,11.1,0V21c0-0.6,0-1.2,0-1.8
	c0-0.1,0-0.2,0-0.4c0-0.4-0.1-0.7-0.2-1.1c-0.2-0.7-0.5-1.4-1-1.9c-0.5-0.6-1.1-1-1.7-1.3c-0.5-0.2-1-0.4-1.6-0.5
	c-0.2,0-0.4-0.1-0.6-0.1C13.4,13.9,11.2,13.9,8.9,13.9L8.9,13.9z M21.1,22.8c-2.6,0-5.3,0-7.9,0v0.1c0,2.2,0,4.5,0,6.7v0.1
	c1.5,0,2.9,0,4.4,0c0.1,0,0.3,0,0.4,0c0.4,0,0.8-0.1,1.2-0.3c0.6-0.2,1-0.5,1.4-1c0.2-0.3,0.4-0.7,0.5-1c0.1-0.5,0.2-1,0.2-1.5
	c0-1,0-2,0-3.1C21.1,22.8,21.1,22.8,21.1,22.8L21.1,22.8z"/>
</svg>
