<?xml version="1.0" encoding="utf-8"?>
<!-- Generator: Adobe Illustrator 21.0.0, SVG Export Plug-In . SVG Version: 6.00 Build 0)  -->
<svg version="1.1" id="Layer_1" xmlns="http://www.w3.org/2000/svg" xmlns:xlink="http://www.w3.org/1999/xlink" x="0px" y="0px"
	 viewBox="0 0 34 34" style="enable-background:new 0 0 34 34;" xml:space="preserve">
<style type="text/css">
	.st0{fill:#FFFFFF;}
</style>
<path class="st0" d="M21.9,8.8c0.9,0,1.8,0.4,2.4,1c0.1,0.2,0.3,0.3,0.5,0.4c0,0.2,0,0.3,0.1,0.5s0.2,0.5,0.4,0.6
	c-0.1,0.2-0.1,0.4-0.1,0.6v0.7c0,0.9-0.1,1.8-0.3,2.7c-1.1,5-5.4,10-12.6,10c-0.1,0-0.2,0-0.3,0c0.4-0.3,0.9-0.5,1.3-0.9
	c0.7-0.5,0.9-1.4,0.7-2.2c-0.3-0.8-1-1.4-1.9-1.4c-0.4,0-0.8-0.1-1.2-0.2c0.4-0.4,0.6-0.9,0.6-1.5c0-0.9-0.7-1.7-1.6-1.9
	c-0.5-0.1-1-0.3-1.4-0.7c0.5-0.2,0.9-0.7,1.1-1.2c0.3-0.8-0.1-1.8-0.8-2.3c-0.3-0.2-0.6-0.5-0.8-0.8c2.6,1.8,5.6,2.8,8.8,3h0.1
	c0.6,0,1.1-0.3,1.5-0.7c0.4-0.5,0.6-1.1,0.4-1.7c-0.1-0.2-0.1-0.5-0.1-0.7C18.7,10.2,20.1,8.8,21.9,8.8 M21.9,6.8
	c-2.9,0-5.2,2.3-5.2,5.1c0,0.4,0.1,0.8,0.2,1.2C12.5,12.9,8.6,10.9,6,7.7c-0.4,0.8-0.7,1.6-0.7,2.6c0,1.8,0.9,3.4,2.3,4.3
	c-0.9,0-1.7-0.2-2.4-0.6c0,0,0,0,0,0.1c0,0.7,0.1,1.3,0.4,1.9c0.6,1.6,2.1,2.8,3.8,3.2c-0.5,0.1-0.9,0.2-1.4,0.2c-0.3,0-0.7,0-1-0.1
	c0.7,2,2.6,3.5,4.9,3.6C10.2,24.2,8,25,5.5,25c-0.4,0-0.8,0-1.3-0.1c2.3,1.5,5.1,2.3,8,2.3c8.2,0,13.2-5.7,14.5-11.5
	c0.2-1.1,0.3-2.1,0.3-3.1c0-0.2,0-0.5,0-0.7c1-0.7,1.9-1.6,2.6-2.7c-0.9,0.4-1.9,0.7-3,0.8c1.1-0.6,1.9-1.6,2.3-2.9
	c-1,0.6-2.1,1-3.3,1.3C24.8,7.4,23.4,6.8,21.9,6.8L21.9,6.8z"/>
</svg>
