<?xml version="1.0" encoding="utf-8"?>
<!-- Generator: Adobe Illustrator 21.0.0, SVG Export Plug-In . SVG Version: 6.00 Build 0)  -->
<svg version="1.1" id="Layer_1" xmlns="http://www.w3.org/2000/svg" xmlns:xlink="http://www.w3.org/1999/xlink" x="0px" y="0px"
	 viewBox="0 0 34 34" style="enable-background:new 0 0 34 34;" xml:space="preserve">
<style type="text/css">
	.st1{fill-rule:evenodd;clip-rule:evenodd;fill:none;stroke:#ffffff;stroke-width:2;stroke-linejoin:round;stroke-miterlimit:10;}
</style>
<path class="st1" d="M17,8.6c0.1,0,5.9,0,9.7,0.3c0.1,0,0.1,0,0.2,0C27.4,9,27.8,9,28.3,9.5c0.2,0.2,0.5,1.1,0.6,1.8c0,0.3,0.3,2.4,0.3,4.5v0.4
	v1.8c0,2.1-0.2,4.2-0.3,4.5c-0.1,0.7-0.4,1.6-0.6,1.9c-0.4,0.5-0.9,0.5-1.4,0.6c-0.1,0-0.1,0-0.2,0c-3.9,0.3-9.7,0.3-9.7,0.3
	c-0.1,0-7.2-0.1-9.4-0.3c-0.1,0-0.3,0-0.4-0.1c-0.7-0.1-1.1-0.2-1.5-0.6c-0.2-0.2-0.5-1.1-0.6-1.8c0,0-0.3-2.3-0.3-4.5v-2v-0.3
	c0-2.2,0.3-4.5,0.3-4.5c0,0,0,0,0,0c0.1-0.6,0.4-1.6,0.6-1.9C6.2,9,6.7,9,7.1,8.9c0.1,0,0.1,0,0.2,0C11.2,8.6,16.9,8.6,17,8.6
	L17,8.6 M14.1,22.8c0.3,0,0.7-0.1,0.9-0.2l7.7-4.1c0.6-0.3,1.1-1,1.1-1.8c0-0.7-0.4-1.4-1-1.8l-4.2-2.3L15,10.8
	c-0.3-0.2-0.6-0.2-1-0.2c-0.4,0-0.7,0.1-1,0.3c-0.6,0.4-1,1-1,1.7v1.9v6.4c0,0.7,0.4,1.4,1,1.7C13.4,22.7,13.7,22.8,14.1,22.8
	 M17,6.6L17,6.6c0,0-6,0-9.9,0.3C6.5,7,5.3,7,4.3,8.2c-0.8,0.9-1.1,2.9-1.1,2.9s-0.3,2.4-0.3,4.8v0.3v2c0,2.4,0.3,4.8,0.3,4.8
	s0.3,2,1.1,2.9C5.3,27,6.8,27,7.4,27.1c2.3,0.2,9.6,0.3,9.6,0.3s5.9,0,9.9-0.3c0.5-0.1,1.8-0.1,2.8-1.3c0.8-0.9,1.1-2.9,1.1-2.9
	s0.3-2.4,0.3-4.8v-1.8v-0.4c0-2.4-0.3-4.8-0.3-4.8s-0.3-2-1.1-2.9C28.7,7,27.5,7,26.9,6.9C23,6.6,17,6.6,17,6.6L17,6.6z M14.1,20.8
	v-6.4v-1.9l3.5,1.9l4.2,2.3L14.1,20.8L14.1,20.8z"/>
</svg>
